<svg xmlns="http://www.w3.org/2000/svg" width="25.976" height="31.341" viewBox="0 0 25.976 31.341">
  <path id="admin-svgrepo-com"
    d="M165.843,7.19v9.234c0,6.894,6.107,10.209,11.013,12.873l.131.07.133-.07c4.905-2.664,11.013-5.978,11.013-12.873V7.19L176.987,1.94,165.843,7.19Zm11.144,24.149a.937.937,0,0,1-.441-.112l-.57-.31C170.922,28.172,164,24.415,164,16.424V6.606a.924.924,0,0,1,.529-.835L176.6.087a.911.911,0,0,1,.783,0l12.067,5.683a.924.924,0,0,1,.529.835v9.818c0,7.991-6.924,11.748-11.977,14.493l-.57.31a.939.939,0,0,1-.442.112Zm7.625-8.939H179.5L178,20.907V19.539H176.1V17.633h-1.366l-.955-.955c-.031,0-.063,0-.094,0a5.212,5.212,0,1,1,5.211-5.211c0,.031,0,.063,0,.092l5.722,5.724V22.4Zm-4.352-1.843h2.509V18.048l-5.8-5.8.065-.608a3.362,3.362,0,1,0-3.351,3.2l.771-.087,1.042,1.04h2.446V17.7h1.906v2.448Zm-5.115-9.035a1.383,1.383,0,1,1-1.383-1.383,1.383,1.383,0,0,1,1.383,1.383"
    transform="translate(-164 0.001)" fill="#fff" fill-rule="evenodd" stroke="#fff"
    stroke-linecap="round" stroke-linejoin="round" stroke-miterlimit="10"
    stroke-width="0.6" />
</svg>