<svg width="34px" height="34px" viewBox="0 0 34 34" fill="none" xmlns="http://www.w3.org/2000/svg" transform="rotate(0) scale(1, 1)">
  <path d="M17.001 32.431C25.5233 32.431 32.432 25.5223 32.432 17C32.432 8.47769 25.5233 1.569 17.001 1.569C8.47869 1.569 1.57 8.47769 1.57 17C1.57 25.5223 8.47869 32.431 17.001 32.431Z" stroke="#0c338cd6" stroke-width="3"/>
  <path d="M12.391 23.21C13.7289 24.2134 15.3561 24.7559 17.0285 24.7559C18.7009 24.7559 20.3281 24.2134 21.666 23.21" stroke="#0c338cd6" stroke-width="3" stroke-linecap="round"/>
  <path d="M23.212 14.708C23.212 15.989 22.52 17.027 21.666 17.027C20.812 17.027 20.12 15.989 20.12 14.708C20.12 13.427 20.812 12.389 21.666 12.389C22.52 12.389 23.212 13.427 23.212 14.708Z" fill="#0c338cd6"/>
  <path d="M12.372 16.999C13.2242 16.999 13.915 16.0319 13.915 14.839C13.915 13.6461 13.2242 12.679 12.372 12.679C11.5198 12.679 10.829 13.6461 10.829 14.839C10.829 16.0319 11.5198 16.999 12.372 16.999Z" fill="#0c338cd6"/>
</svg>