<svg width="34" height="35" viewBox="0 0 34 35" fill="none" xmlns="http://www.w3.org/2000/svg">
  <path
    d="M16.952 32.937C25.4743 32.937 32.383 26.0283 32.383 17.506C32.383 8.98371 25.4743 2.07501 16.952 2.07501C8.42969 2.07501 1.521 8.98371 1.521 17.506C1.521 26.0283 8.42969 32.937 16.952 32.937Z"
    stroke="#FFFFFF" stroke-width="3" />
  <path
    d="M12.3409 23.716C13.6788 24.7194 15.3061 25.2619 16.9784 25.2619C18.6508 25.2619 20.2781 24.7194 21.6159 23.716"
    stroke="#FFFFFF" stroke-width="3" stroke-linecap="round" />
  <path
    d="M23.1619 15.214C23.1619 16.495 22.4699 17.533 21.6159 17.533C20.7619 17.533 20.0699 16.495 20.0699 15.214C20.0699 13.933 20.7619 12.895 21.6159 12.895C22.4699 12.895 23.1619 13.933 23.1619 15.214Z"
    fill="#FFFFFF" />
  <path
    d="M12.3221 17.505C13.1742 17.505 13.8651 16.5379 13.8651 15.345C13.8651 14.1521 13.1742 13.185 12.3221 13.185C11.4699 13.185 10.7791 14.1521 10.7791 15.345C10.7791 16.5379 11.4699 17.505 12.3221 17.505Z"
    fill="#FFFFFF" />
</svg>