<svg xmlns="http://www.w3.org/2000/svg" width="36.17" height="34.362" viewBox="0 0 36.17 34.362">
  <g id="article-search-line-svgrepo-com" transform="translate(-1.5 -2.5)">
    <path id="Tracciato_6559" data-name="Tracciato 6559" d="M24.7,11.233h3.617M24.7,18.466h3.617M19.274,25.7H10.233m25.316-7.233V7.617A3.616,3.616,0,0,0,31.932,4H6.617A3.617,3.617,0,0,0,3,7.617v21.7a3.616,3.616,0,0,0,3.617,3.617H19.274m-9.041-21.7v7.233h7.233V11.233Z" transform="translate(0 0)" fill="none" stroke="#103ab1" stroke-linecap="round" stroke-linejoin="round" stroke-width="3"/>
    <path id="Tracciato_6560" data-name="Tracciato 6560" d="M22.717,22.717a4.521,4.521,0,1,0-3.2,1.324A4.507,4.507,0,0,0,22.717,22.717Zm0,0L25.85,25.85" transform="translate(9.699 8.891)" fill="none" stroke="#103ab1" stroke-linecap="round" stroke-linejoin="round" stroke-width="3"/>
  </g>
</svg>
