<svg id="Page-1" xmlns="http://www.w3.org/2000/svg" width="27.801" height="30.555" viewBox="0 0 27.801 30.555">
  <g id="icon" transform="translate(0 0.001)">
    <path id="DOC" d="M2.162,28.694h.412a3.967,3.967,0,0,0,2.188-.481,2.308,2.308,0,0,0,.9-1.28,4.5,4.5,0,0,0,.2-1.368,4.258,4.258,0,0,0-.236-1.443,2.523,2.523,0,0,0-.65-1.037,2.09,2.09,0,0,0-.895-.476,6.731,6.731,0,0,0-1.51-.126H2.162ZM0,30.388v-9.6H2.656a9.122,9.122,0,0,1,2.708.326A3.583,3.583,0,0,1,7.4,22.7a5.474,5.474,0,0,1,.706,2.9A5.447,5.447,0,0,1,7.4,28.512a3.736,3.736,0,0,1-2.721,1.734,13.557,13.557,0,0,1-2.167.142Zm13.961-8.073a2.037,2.037,0,0,0-1.809.975,4.065,4.065,0,0,0-.575,2.261,3.954,3.954,0,0,0,.684,2.48,2.167,2.167,0,0,0,3.522-.15,4.069,4.069,0,0,0,.575-2.288,3.9,3.9,0,0,0-.684-2.445,2.057,2.057,0,0,0-1.713-.833m.006-1.694a4.269,4.269,0,0,1,3.467,1.437,5.3,5.3,0,0,1,1.157,3.535,5.139,5.139,0,0,1-1.366,3.758,4.349,4.349,0,0,1-3.258,1.2A4.275,4.275,0,0,1,10.5,29.12a5.381,5.381,0,0,1-1.158-3.589,5.073,5.073,0,0,1,1.369-3.712,4.372,4.372,0,0,1,3.257-1.2m13.2,7.5.631,1.727a7.213,7.213,0,0,1-1.491.559,7.277,7.277,0,0,1-1.571.144,5.809,5.809,0,0,1-2.33-.4,3.951,3.951,0,0,1-1.943-1.794,5.609,5.609,0,0,1-.59-2.683,5,5,0,0,1,1.631-4.049,4.672,4.672,0,0,1,3.122-1,6.926,6.926,0,0,1,1.5.15,8.292,8.292,0,0,1,1.536.538l-.724,1.627a4.589,4.589,0,0,0-2.194-.623,2.3,2.3,0,0,0-1.937.866,3.805,3.805,0,0,0-.7,2.4,3.619,3.619,0,0,0,.738,2.414,2.529,2.529,0,0,0,2.039.869,3.494,3.494,0,0,0,1.083-.158,6.033,6.033,0,0,0,1.2-.58M18.592,0H1.015V17.577h3.2V3.2H17.266l6.12,6.12v8.261h3.2V7.99L18.592,0Z" transform="translate(0 0)" fill="#fff" fill-rule="evenodd"/>
  </g>
</svg>
