<svg xmlns="http://www.w3.org/2000/svg" width="35.659" height="35.661" viewBox="0 0 35.659 35.661">
  <path id="write-svgrepo-com" d="M10.2,25.78l3.14-.906,18.9-19.131A.813.813,0,0,0,32.238,4.6L31.105,3.457a.79.79,0,0,0-1.127-.005L11.124,22.533,10.2,25.778ZM33.347,1.189l1.132,1.146a4.064,4.064,0,0,1,.029,5.7L15.027,27.75,8.316,29.683a1.606,1.606,0,0,1-1.979-1.111,1.631,1.631,0,0,1,0-.9l1.952-6.847L27.714,1.159a3.949,3.949,0,0,1,5.632.029ZM12.809,3.245a1.621,1.621,0,0,1,0,3.241H6.4a3.222,3.222,0,0,0-3.2,3.24V29.171a3.222,3.222,0,0,0,3.2,3.241H25.618a3.223,3.223,0,0,0,3.2-3.241V22.69a1.6,1.6,0,1,1,3.2,0v6.479a6.445,6.445,0,0,1-6.406,6.483H6.4A6.444,6.444,0,0,1,0,29.171V9.726A6.443,6.443,0,0,1,6.4,3.245Z" transform="translate(0 0.007)" fill="#103ab1"/>
</svg>
