<svg xmlns="http://www.w3.org/2000/svg" width="40.424" height="39.449" viewBox="0 0 40.424 39.449">
  <g id="recycle-logo-svgrepo-com" transform="translate(0 -0.681)">
    <g id="Raggruppa_3566" data-name="Raggruppa 3566" transform="translate(0 0.681)">
      <path id="Tracciato_6564" data-name="Tracciato 6564"
        d="M28.432,14.228c.134.011.269.016.4.016a6.335,6.335,0,0,0,5.5-3.518L35.2,8.787c.966-2.169.72-2.97.451-3.384a1.377,1.377,0,0,0-1.912-.34c-.154.091-.294.163-.413.219l-.555-.909q-.43-.7-.745-1.259c-.213-.378-.341-.614-.413-.748A3.641,3.641,0,0,0,28.624.854,50.945,50.945,0,0,0,23.107.688q-3.646.034-4.929.068c-.4.009-.768.024-1.1.047a4.015,4.015,0,0,0-.827.12,6.435,6.435,0,0,0-.782-.168q-.3-.042-.557-.065a5.535,5.535,0,0,0-1.65.185,5.737,5.737,0,0,0-.891.313,2.632,2.632,0,0,0-1.225,1.08c-.106.163-.293.476-.552.93-.245.425-.562.956-.955,1.595L6.8,9.447a1.456,1.456,0,0,0-.148,1.142C7,11.9,9.071,13.13,9.7,13.476l1.645.911a4.747,4.747,0,0,0,2.292.585,4.9,4.9,0,0,0,4.047-2.131l2.145-3.227A21.893,21.893,0,0,0,21.5,6.787l1.32,2.229a3.526,3.526,0,0,1,.625,2.07,1.334,1.334,0,0,0-.613,1.413c.139.6.646,1.322,3.355,1.545Zm-10.4-5.805L15.889,11.65a2.724,2.724,0,0,1-2.257,1.172,2.586,2.586,0,0,1-1.252-.317l-1.645-.911A7.124,7.124,0,0,1,8.861,10.2l2.6-4.286c.4-.658.731-1.206.987-1.648.231-.4.394-.681.523-.883a.565.565,0,0,1,.289-.244,3.631,3.631,0,0,1,.56-.192,3.882,3.882,0,0,1,.883-.117c.139.013.294.031.459.054a6.7,6.7,0,0,1,1.347.384,5.567,5.567,0,0,1,1.557.944,5.945,5.945,0,0,1,1.395,1.752l.027.042A25.983,25.983,0,0,1,18.035,8.423Zm6.635-.5L23.065,5.211a8.752,8.752,0,0,0-1.9-2.353l1.96-.02a49.109,49.109,0,0,1,5.26.153c1.124.125,1.346.413,1.351.415.054.1.193.356.421.762s.486.84.787,1.328l.89,1.471a1.374,1.374,0,0,0,1.571.556c-.048.12-.1.251-.165.39l-.863,1.939a4.145,4.145,0,0,1-3.769,2.234L26.363,11.9c-.357-.029-.651-.067-.89-.108A5.044,5.044,0,0,0,24.671,7.92Z"
        transform="translate(-1.872 -0.681)" fill="#fff" stroke="#fff"
        stroke-width=".8" />
      <path id="Tracciato_6565" data-name="Tracciato 6565"
        d="M15.706,32.707l-6.2.057c-.056-.037-.11-.072-.171-.108a.307.307,0,0,1-.009-.082.929.929,0,0,1,.144-.35,2.388,2.388,0,0,1,.276-.379c.193-.232.393-.466.592-.7q.153-.173.287-.319c.154.069.346.165.568.292a1.561,1.561,0,0,0,.784.227h0a1.231,1.231,0,0,0,1.065-.6c.285-.474.422-1.245-.714-3.384l-.841-1.583A7.108,7.108,0,0,0,5.6,22.27l-2.073.062C1.4,22.4.4,22.807.169,23.7a1.35,1.35,0,0,0,.743,1.533c.1.059.191.116.272.168q-.115.178-.233.38a7.477,7.477,0,0,0-.674,1.577A6.735,6.735,0,0,0,0,29.409,6.891,6.891,0,0,0,.105,30.62a6.012,6.012,0,0,0,.316,1.068,3.617,3.617,0,0,0,1.19,1.633c.128.226.268.474.433.763l.254.446q.557.974,1.169,2.058c.4.709.689,1.236.86,1.564.075.15.125.254.148.313.011.029.022.057.036.085q.471,1,.885,1.791c.3.559.62,1.119.962,1.666A7.892,7.892,0,0,0,7.6,43.572a2.6,2.6,0,0,0,1.774.809h.016l6.418-.059a4.527,4.527,0,0,0,4.48-4.563l-.024-2.57A4.542,4.542,0,0,0,15.706,32.707ZM4.251,32.248a4.241,4.241,0,0,1-.887-.519,2.418,2.418,0,0,1-.433-.422,1.1,1.1,0,0,0-.493-.363l-.006-.018a3.885,3.885,0,0,1-.215-.706,4.77,4.77,0,0,1-.068-.825,4.669,4.669,0,0,1,.181-1.4,5.334,5.334,0,0,1,.475-1.122,5.414,5.414,0,0,1,.468-.7c.05-.059.1-.112.135-.153a1.163,1.163,0,0,0,.022-1.535l.16-.006L5.6,24.419a5.032,5.032,0,0,1,3.991,2.37l.842,1.583c.034.064.066.126.1.186a1.191,1.191,0,0,0-1.046.357l-.16.164c-.168.175-.37.391-.6.654-.216.25-.426.5-.632.744a4.235,4.235,0,0,0-.518.744,2.746,2.746,0,0,0-.394,1.371c0,.067.007.13.012.193h-.14A6.773,6.773,0,0,1,4.251,32.248Zm11.543,9.924-6.4.059a.99.99,0,0,1-.315-.225,5.82,5.82,0,0,1-.9-1.141c-.315-.5-.612-1.016-.881-1.525s-.535-1.055-.83-1.679c-.042-.1-.114-.261-.225-.484q-.277-.536-.9-1.646l-.378-.669a8.7,8.7,0,0,0,1.673.171l1.431-.013a4.831,4.831,0,0,0,1.121-.1l6.562-.06a2.379,2.379,0,0,1,2.371,2.351l.024,2.57A2.374,2.374,0,0,1,15.794,42.172Z"
        transform="translate(0 -6.803)" fill="#fff" stroke="#fff"
        stroke-width=".8" />
      <path id="Tracciato_6566" data-name="Tracciato 6566"
        d="M47.746,24.42,45.857,20.9c-.408-.748-.754-1.387-1.036-1.912l-.266-.494a1.241,1.241,0,0,0-1.121-.63,10.076,10.076,0,0,0-3.6,1.519L37.986,20.5a4.966,4.966,0,0,0-2.361,3.013,2.932,2.932,0,0,0,.359,2.275l1.3,2c1.368,2.109,2.287,3.53,2.769,4.286l-2.1.019a3.893,3.893,0,0,1-2.179-.506,1.4,1.4,0,0,0-.39-.931,1.227,1.227,0,0,0-.873-.36c-.545,0-1.272.274-2.542,2.305L31,34.145a7.087,7.087,0,0,0,.009,6.984l1.015,1.615C33.273,44.733,34,45,34.547,45h0a1.232,1.232,0,0,0,.883-.367,1.488,1.488,0,0,0,.4-1.105.267.267,0,0,1,.08-.12A1.6,1.6,0,0,1,37,43.043l2.248-.021a3.219,3.219,0,0,0,2.085-.84,8.433,8.433,0,0,0,1.505-1.749,20.748,20.748,0,0,0,1.215-2.089c.345-.679.789-1.6,1.345-2.8.219-.45.429-.89.624-1.318l.489-.9c.4-.695.737-1.3.989-1.792.138-.268.267-.544.387-.832a3.234,3.234,0,0,0,.17-.506c.044-.057.1-.123.133-.173a4.867,4.867,0,0,0,.769-2.642,2.9,2.9,0,0,0-.352-1.42C48.447,25.709,48.183,25.233,47.746,24.42Zm-4.292,10.2c-.553,1.191-.985,2.09-1.321,2.748a18.3,18.3,0,0,1-1.089,1.872,6.3,6.3,0,0,1-1.11,1.3,1.136,1.136,0,0,1-.71.326l-2.246.021a3.691,3.691,0,0,0-2.6,1.009,2.627,2.627,0,0,0-.188.213c-.1-.148-.219-.32-.343-.517l-1.014-1.615a4.914,4.914,0,0,1-.006-4.7l.965-1.545c.163-.261.31-.478.439-.657a5.438,5.438,0,0,0,3.722,1.158h.081l3.358-.031a7.014,7.014,0,0,0,2.531-.561C43.772,33.963,43.617,34.286,43.454,34.623ZM46.74,28a3.02,3.02,0,0,1-.292.764c-.068.093-.149.2-.245.321a.289.289,0,0,0-.019.023,1.227,1.227,0,0,0-.123.128l-.1.133c-.2.219-.45.468-.758.749a6.7,6.7,0,0,1-1.57,1.036,4.646,4.646,0,0,1-1.344.426c-.082-.127-.188-.289-.323-.5q-.669-1.056-2.881-4.462l-1.3-2a.8.8,0,0,1-.069-.625A2.922,2.922,0,0,1,39.1,22.335l1.845-1.116a14.825,14.825,0,0,1,2.065-1.067c.268.5.589,1.091.959,1.767l1.886,3.518c.463.86.736,1.352.893,1.608a.809.809,0,0,1,.06.363A2.569,2.569,0,0,1,46.74,28Z"
        transform="translate(-8.532 -5.553)" fill="#fff" stroke="#fff"
        stroke-width=".8" />
    </g>
  </g>
</svg>