<svg id="scan-svgrepo-com" xmlns="http://www.w3.org/2000/svg" width="33.322" height="33.322" viewBox="0 0 33.322 33.322">
  <path id="Tracciato_6559" data-name="Tracciato 6559" d="M9.5,5.332A4.165,4.165,0,0,0,5.332,9.5v.833a1.666,1.666,0,1,1-3.332,0V9.5A7.5,7.5,0,0,1,9.5,2h.833a1.666,1.666,0,0,1,0,3.332Z" transform="translate(-1.999 -2)" fill="#ff5e5e"/>
  <path id="Tracciato_6560" data-name="Tracciato 6560" d="M16.262,6c-1.109,0-2.042,0-2.8.062a5.951,5.951,0,0,0-2.275.573A5.832,5.832,0,0,0,8.634,9.184a5.951,5.951,0,0,0-.573,2.275c-.03.363-.045.765-.053,1.205H4.666a1.666,1.666,0,0,0,0,3.332H31.324a1.666,1.666,0,0,0,0-3.332H27.983c-.008-.441-.024-.842-.053-1.205a5.949,5.949,0,0,0-.573-2.275,5.831,5.831,0,0,0-2.548-2.548,5.952,5.952,0,0,0-2.275-.573C21.77,6,20.838,6,19.728,6Zm8.388,6.665c-.007-.359-.02-.665-.042-.934a2.739,2.739,0,0,0-.221-1.034A2.5,2.5,0,0,0,23.3,9.6a2.741,2.741,0,0,0-1.034-.221c-.611-.05-1.406-.051-2.6-.051H16.329c-1.194,0-1.989,0-2.6.051A2.742,2.742,0,0,0,12.7,9.6,2.5,2.5,0,0,0,11.6,10.7a2.742,2.742,0,0,0-.221,1.034c-.022.269-.035.575-.042.934Z" transform="translate(-1.333 0.665)" fill="#ff5e5e" fill-rule="evenodd"/>
  <path id="Tracciato_6561" data-name="Tracciato 6561" d="M19.455,21.331H14.264c-1.109,0-2.042,0-2.8-.062A5.949,5.949,0,0,1,9.184,20.7a5.831,5.831,0,0,1-2.548-2.548c-.061-.12-.094-.176-.136-.248-.026-.045-.056-.1-.1-.173A2.773,2.773,0,0,1,6.09,16.9a5.22,5.22,0,0,1-.083-.911C6,15.676,6,15.253,6,14.693v-.026a1.666,1.666,0,1,1,3.332,0c0,.593,0,.974.007,1.244,0,.127.007.208.011.259.054.094.16.278.255.465A2.5,2.5,0,0,0,10.7,17.726a2.739,2.739,0,0,0,1.034.221c.611.05,1.406.051,2.6.051h5a9.725,9.725,0,0,0,1.224-.031,2.5,2.5,0,0,0,2.077-2.077,9.726,9.726,0,0,0,.031-1.224,1.666,1.666,0,1,1,3.332,0v.126a10.725,10.725,0,0,1-.072,1.619,5.832,5.832,0,0,1-4.847,4.848A10.725,10.725,0,0,1,19.455,21.331Z" transform="translate(0.665 5.328)" fill="#ff5e5e"/>
  <path id="Tracciato_6562" data-name="Tracciato 6562" d="M26,17.666a1.666,1.666,0,1,0-3.332,0V18.5A4.165,4.165,0,0,1,18.5,22.665h-.833a1.666,1.666,0,0,0,0,3.332H18.5A7.5,7.5,0,0,0,26,18.5Z" transform="translate(7.327 7.326)" fill="#ff5e5e"/>
  <path id="Tracciato_6563" data-name="Tracciato 6563" d="M16,3.666A1.666,1.666,0,0,1,17.666,2H18.5A7.5,7.5,0,0,1,26,9.5v.833a1.666,1.666,0,1,1-3.332,0V9.5A4.165,4.165,0,0,0,18.5,5.332h-.833A1.666,1.666,0,0,1,16,3.666Z" transform="translate(7.327 -2)" fill="#ff5e5e"/>
  <path id="Tracciato_6564" data-name="Tracciato 6564" d="M5.332,17.666a1.666,1.666,0,1,0-3.332,0V18.5A7.5,7.5,0,0,0,9.5,26h.833a1.666,1.666,0,0,0,0-3.332H9.5A4.165,4.165,0,0,1,5.332,18.5Z" transform="translate(-1.999 7.326)" fill="#ff5e5e"/>
</svg>
