<svg width="42" height="42" viewBox="0 0 42 42" fill="none" xmlns="http://www.w3.org/2000/svg">
<path d="M41.0459 21.0645C41.0459 9.74262 31.8677 0.564453 20.5459 0.564453C9.22406 0.564453 0.0458984 9.74262 0.0458984 21.0645C0.0458984 32.3863 9.22406 41.5645 20.5459 41.5645C31.8677 41.5645 41.0459 32.3863 41.0459 21.0645Z" fill="#CED7EC"/>
<path d="M27.5459 16.1755C26.9959 15.2525 26.2218 14.4835 25.2952 13.9396C24.3687 13.3958 23.3198 13.0947 22.2459 13.0645C18.5459 13.0645 15.5459 16.6465 15.5459 21.0645C15.5459 25.4825 18.5459 29.0645 22.2459 29.0645C23.3198 29.0342 24.3687 28.7331 25.2952 28.1893C26.2218 27.6454 26.9959 26.8764 27.5459 25.9535M13.5459 19.0645H22.5459M13.5459 23.0645H22.5459" stroke="#5172CC" stroke-width="2" stroke-linecap="round" stroke-linejoin="round"/>
</svg>
