<svg width="42" height="42" viewBox="0 0 42 42" fill="none" xmlns="http://www.w3.org/2000/svg">
<path d="M41.0459 21.0645C41.0459 9.74262 31.8677 0.564453 20.5459 0.564453C9.22406 0.564453 0.0458984 9.74262 0.0458984 21.0645C0.0458984 32.3863 9.22406 41.5645 20.5459 41.5645C31.8677 41.5645 41.0459 32.3863 41.0459 21.0645Z" fill="#F0F0F0" fill-opacity="0.67"/>
<path d="M25.81 13.0645V26.3975C25.7803 27.1329 25.4603 27.8266 24.9201 28.3265C24.3799 28.8264 23.6635 29.0918 22.928 29.0645C22.1925 29.0918 21.4761 28.8264 20.9359 28.3265C20.3957 27.8266 20.0757 27.1329 20.046 26.3975V18.3975C20.0161 17.662 19.6958 16.9684 19.1554 16.4687C18.615 15.969 17.8985 15.7038 17.163 15.7315C16.4276 15.7041 15.7114 15.9694 15.1712 16.4691C14.631 16.9688 14.3109 17.6622 14.281 18.3975V29.0645" stroke="#7E7E7E" stroke-width="2" stroke-linecap="round" stroke-linejoin="round"/>
<path d="M27.81 15.0645L25.81 13.0645L23.81 15.0645" stroke="#7E7E7E" stroke-width="2" stroke-linecap="round" stroke-linejoin="round"/>
</svg>
