<svg width="112" height="112" viewBox="0 0 112 112" fill="none" xmlns="http://www.w3.org/2000/svg">
<path d="M0.597656 8.55934C0.597656 6.47341 1.42629 4.47291 2.90126 2.99794C4.37623 1.52297 6.37673 0.694336 8.46265 0.694336H103.539C105.625 0.694336 107.625 1.52297 109.1 2.99794C110.575 4.47291 111.404 6.47341 111.404 8.55934V103.635C111.404 105.721 110.575 107.722 109.1 109.197C107.625 110.672 105.625 111.5 103.539 111.5H8.46265C6.37673 111.5 4.37623 110.672 2.90126 109.197C1.42629 107.722 0.597656 105.721 0.597656 103.635V8.55934Z" fill="#0274B3"/>
<path d="M25.4677 35.1063C27.3688 35.1063 29.2272 34.5426 30.8079 33.4864C32.3885 32.4302 33.6205 30.929 34.348 29.1727C35.0756 27.4163 35.2659 25.4837 34.895 23.6191C34.5241 21.7546 33.6087 20.0419 32.2644 18.6976C30.9202 17.3534 29.2075 16.4379 27.3429 16.067C25.4784 15.6961 23.5457 15.8865 21.7894 16.614C20.033 17.3415 18.5318 18.5735 17.4756 20.1542C16.4194 21.7349 15.8557 23.5933 15.8557 25.4943C15.8557 28.0436 16.8684 30.4884 18.671 32.291C20.4736 34.0936 22.9185 35.1063 25.4677 35.1063Z" fill="white"/>
<path d="M43.8835 42.2093H59.8145V49.5093C59.8145 49.5093 64.1375 40.8633 75.8995 40.8633C86.3925 40.8633 95.0845 46.0323 95.0845 61.7873V95.0083H78.5755V65.8083C78.5755 56.5143 73.6136 55.4923 69.8326 55.4923C61.9855 55.4923 60.6425 62.2603 60.6425 67.0213V95.0083H43.8835V42.2093Z" fill="white"/>
<path d="M17.0886 42.2104H33.8476V95.0105H17.0886V42.2104Z" fill="white"/>
</svg>
