<svg width="21" height="19" viewBox="0 0 21 19" fill="none" xmlns="http://www.w3.org/2000/svg">
<path d="M18.3471 4.76V10.4C18.3471 13.945 18.3471 15.717 17.2471 16.819C16.1471 17.921 14.3731 17.919 10.8281 17.919H9.88807C6.34307 17.919 4.57107 17.919 3.46907 16.819C2.36707 15.719 2.36707 13.945 2.36707 10.4V4.76" stroke="#6F7070" stroke-width="1.5" stroke-linecap="round"/>
<path d="M0.957031 2.88C0.957031 1.994 0.957031 1.551 1.23203 1.28C1.50703 1.009 1.95103 1 2.83703 1H17.877C18.763 1 19.206 1 19.477 1.275C19.748 1.55 19.752 1.993 19.752 2.875C19.752 3.757 19.752 4.204 19.477 4.475C19.202 4.746 18.759 4.75 17.877 4.75H2.83703C1.95103 4.75 1.50803 4.75 1.23703 4.475C0.966031 4.2 0.957031 3.766 0.957031 2.88Z" stroke="#6F7070" stroke-width="1.5"/>
<path d="M8.00708 10.776L9.35008 12.276L12.7071 8.52" stroke="#6F7070" stroke-width="1.5" stroke-linecap="round" stroke-linejoin="round"/>
</svg>
