<svg width="72" height="64" viewBox="0 0 72 64" fill="none" xmlns="http://www.w3.org/2000/svg">
<path d="M54.6069 39.719C56.9486 39.719 58.8469 37.8207 58.8469 35.479C58.8469 33.1374 56.9486 31.239 54.6069 31.239C52.2653 31.239 50.3669 33.1374 50.3669 35.479C50.3669 37.8207 52.2653 39.719 54.6069 39.719Z" fill="#CBAAD5"/>
<path d="M48.6509 50.27C50.9926 50.27 52.8909 48.3717 52.8909 46.03C52.8909 43.6884 50.9926 41.79 48.6509 41.79C46.3092 41.79 44.4109 43.6884 44.4109 46.03C44.4109 48.3717 46.3092 50.27 48.6509 50.27Z" fill="#CBAAD5"/>
<path d="M40.2609 51.053H30.7199C27.8199 51.053 25.9999 53.453 25.9999 56.453V63.853H29.2559V57.313C29.2574 57.1809 29.3106 57.0546 29.404 56.9612C29.4975 56.8678 29.6237 56.8146 29.7559 56.813C29.8224 56.8097 29.8889 56.8204 29.951 56.8444C30.0132 56.8684 30.0696 56.9051 30.1167 56.9522C30.1638 56.9993 30.2006 57.0557 30.2245 57.1179C30.2485 57.18 30.2592 57.2465 30.2559 57.313V63.825H40.7309V57.313C40.7309 57.1791 40.7841 57.0507 40.8788 56.9559C40.9735 56.8612 41.1019 56.808 41.2359 56.808C41.3698 56.808 41.4983 56.8612 41.593 56.9559C41.6877 57.0507 41.7409 57.1791 41.7409 57.313V63.825H44.9969V56.48C45.0569 53.453 43.2139 51.053 40.2609 51.053Z" fill="#681C7F"/>
<path d="M42.293 39.719C44.6347 39.719 46.533 37.8207 46.533 35.479C46.533 33.1374 44.6347 31.239 42.293 31.239C39.9513 31.239 38.053 33.1374 38.053 35.479C38.053 37.8207 39.9513 39.719 42.293 39.719Z" fill="#CBAAD5"/>
<path d="M57.8499 46.031C57.8501 46.8695 58.0989 47.6892 58.5649 48.3863C59.0308 49.0834 59.693 49.6267 60.4677 49.9475C61.2425 50.2683 62.0949 50.3521 62.9173 50.1885C63.7397 50.0249 64.4951 49.6211 65.088 49.0282C65.6809 48.4353 66.0847 47.6799 66.2483 46.8575C66.412 46.0351 66.3281 45.1826 66.0073 44.4079C65.6865 43.6332 65.1432 42.971 64.4461 42.505C63.749 42.0391 62.9294 41.7902 62.0909 41.79C61.5337 41.7891 60.9818 41.8982 60.4668 42.111C59.9519 42.3238 59.484 42.6361 59.09 43.0301C58.696 43.4241 58.3836 43.892 58.1708 44.407C57.958 44.9219 57.8489 45.4738 57.8499 46.031Z" fill="#681C7F"/>
<path d="M57.4209 51.053C54.5209 51.053 52.7009 53.453 52.7009 56.453V63.853H55.9569V57.316C55.9585 57.1839 56.0117 57.0576 56.1051 56.9642C56.1985 56.8708 56.3248 56.8176 56.4569 56.816C56.5235 56.8127 56.5899 56.8234 56.6521 56.8474C56.7143 56.8713 56.7707 56.9081 56.8178 56.9552C56.8649 57.0023 56.9016 57.0587 56.9256 57.1209C56.9495 57.183 56.9602 57.2495 56.9569 57.316V63.828H67.4319V57.316C67.4319 57.1821 67.4851 57.0536 67.5798 56.9589C67.6745 56.8642 67.803 56.811 67.9369 56.811C68.0709 56.811 68.1993 56.8642 68.294 56.9589C68.3887 57.0536 68.4419 57.1821 68.4419 57.316V63.828H71.6979V56.483C71.7479 53.429 69.9059 51.031 66.9779 51.031H57.4209V51.053Z" fill="#681C7F"/>
<path d="M9.93495 50.27C12.2766 50.27 14.1749 48.3717 14.1749 46.03C14.1749 43.6884 12.2766 41.79 9.93495 41.79C7.59326 41.79 5.69495 43.6884 5.69495 46.03C5.69495 48.3717 7.59326 50.27 9.93495 50.27Z" fill="#681C7F"/>
<path d="M3.62492 63.828V57.316C3.62648 57.1839 3.67966 57.0576 3.77309 56.9642C3.86652 56.8708 3.9928 56.8176 4.12492 56.816C4.19145 56.8127 4.25794 56.8234 4.32009 56.8474C4.38225 56.8713 4.43869 56.9081 4.48579 56.9552C4.5329 57.0023 4.56961 57.0587 4.59357 57.1209C4.61754 57.183 4.62821 57.2495 4.62492 57.316V63.828H15.1099V57.316C15.1099 57.1821 15.1631 57.0536 15.2578 56.9589C15.3525 56.8642 15.481 56.811 15.6149 56.811C15.7489 56.811 15.8773 56.8642 15.972 56.9589C16.0667 57.0536 16.1199 57.1821 16.1199 57.316V63.828H19.3759V56.483C19.4259 53.429 17.5839 51.031 14.6559 51.031H5.11392C2.21392 51.031 0.393921 53.431 0.393921 56.431V63.828H3.62492Z" fill="#681C7F"/>
<path d="M31.2639 46.031C31.2639 46.8699 31.5127 47.6899 31.9787 48.3873C32.4448 49.0848 33.1072 49.6283 33.8822 49.9493C34.6572 50.2703 35.51 50.3542 36.3327 50.1905C37.1554 50.0268 37.911 49.6227 38.5041 49.0295C39.0972 48.4363 39.501 47.6805 39.6646 46.8578C39.8281 46.0351 39.744 45.1823 39.4228 44.4074C39.1017 43.6325 38.5579 42.9702 37.8604 42.5043C37.1628 42.0384 36.3428 41.7898 35.5039 41.79C34.9468 41.7893 34.395 41.8984 33.8802 42.1113C33.3653 42.3241 32.8976 42.6365 32.5037 43.0305C32.1098 43.4245 31.7975 43.8923 31.5848 44.4072C31.372 44.9221 31.263 45.4739 31.2639 46.031Z" fill="#681C7F"/>
<path d="M16.861 39.719C19.2027 39.719 21.101 37.8207 21.101 35.479C21.101 33.1374 19.2027 31.239 16.861 31.239C14.5193 31.239 12.621 33.1374 12.621 35.479C12.621 37.8207 14.5193 39.719 16.861 39.719Z" fill="#CBAAD5"/>
<path d="M29.9219 39.719C32.2636 39.719 34.1619 37.8207 34.1619 35.479C34.1619 33.1374 32.2636 31.239 29.9219 31.239C27.5802 31.239 25.6819 33.1374 25.6819 35.479C25.6819 37.8207 27.5802 39.719 29.9219 39.719Z" fill="#CBAAD5"/>
<path d="M23.4199 50.27C25.7616 50.27 27.6599 48.3717 27.6599 46.03C27.6599 43.6884 25.7616 41.79 23.4199 41.79C21.0782 41.79 19.1799 43.6884 19.1799 46.03C19.1799 48.3717 21.0782 50.27 23.4199 50.27Z" fill="#CBAAD5"/>
<path d="M35.7819 26.193C38.3531 26.1986 40.8682 25.4415 43.0092 24.0176C45.1501 22.5937 46.8207 20.5669 47.8097 18.1936C48.7987 15.8202 49.0617 13.2068 48.5655 10.684C48.0692 8.16113 46.836 5.84209 45.0217 4.02014C43.2075 2.19819 40.8937 0.955148 38.3729 0.448222C35.8522 -0.0587048 33.2378 0.193248 30.8602 1.17222C28.4827 2.15119 26.4489 3.81321 25.0159 5.94809C23.583 8.08297 22.8153 10.5948 22.8099 13.166C22.8062 16.6126 24.17 19.9199 26.6019 22.3622C29.0339 24.8045 32.3354 26.1822 35.7819 26.193ZM41.9659 8.01903C42.4053 8.02903 42.8318 8.16909 43.1916 8.42149C43.5513 8.6739 43.8281 9.02731 43.987 9.43704C44.1459 9.84677 44.1798 10.2944 44.0843 10.7234C43.9887 11.1523 43.7682 11.5433 43.4504 11.8469C43.1327 12.1506 42.7321 12.3531 42.2992 12.429C41.8664 12.505 41.4207 12.4508 41.0186 12.2735C40.6166 12.0961 40.2761 11.8035 40.0403 11.4327C39.8045 11.0618 39.684 10.6294 39.6939 10.19C39.6921 9.89569 39.7503 9.60407 39.8651 9.33303C39.9799 9.06199 40.1488 8.81725 40.3616 8.6138C40.5743 8.41035 40.8263 8.25248 41.1022 8.14987C41.3781 8.04725 41.672 8.00205 41.9659 8.01703V8.01903ZM30.0769 8.01903C30.3724 8.01982 30.6648 8.07954 30.937 8.19471C31.2091 8.30987 31.4556 8.47817 31.6619 8.68973C31.8682 8.9013 32.0302 9.1519 32.1385 9.42685C32.2468 9.70181 32.2991 9.9956 32.2924 10.291C32.2858 10.5865 32.2203 10.8776 32.0997 11.1474C31.9792 11.4172 31.8061 11.6603 31.5904 11.8623C31.3748 12.0644 31.1211 12.2214 30.844 12.3242C30.567 12.427 30.2722 12.4735 29.9769 12.461C29.3958 12.4364 28.8475 12.1849 28.4497 11.7604C28.052 11.336 27.8365 10.7725 27.8496 10.191C27.8627 9.60948 28.1033 9.05627 28.5197 8.65018C28.9362 8.24408 29.4953 8.01748 30.0769 8.01903Z" fill="#681C7F"/>
<path d="M36.0959 22.2111C34.5176 22.2122 32.9719 21.7611 31.6419 20.9112C30.3119 20.0613 29.2532 18.8481 28.5913 17.4152C28.4735 17.1256 28.4734 16.8014 28.5911 16.5117C28.7087 16.222 28.9347 15.9896 29.2211 15.8641C29.543 15.7592 29.8914 15.7694 30.2067 15.8931C30.5219 16.0167 30.7843 16.2461 30.9491 16.5419C31.4165 17.5219 32.1504 18.3506 33.0667 18.9331C33.983 19.5157 35.0448 19.8285 36.1306 19.8358C37.2092 19.8321 38.2623 19.5076 39.1559 18.9035C40.0494 18.2994 40.743 17.4431 41.1484 16.4435C41.2093 16.294 41.2994 16.1581 41.4134 16.0438C41.5274 15.9295 41.663 15.839 41.8124 15.7777C41.9617 15.7164 42.1218 15.6855 42.2833 15.6868C42.4447 15.688 42.6043 15.7215 42.7527 15.7851C42.9089 15.8363 43.0522 15.9208 43.1727 16.0328C43.2932 16.1447 43.388 16.2814 43.4505 16.4335C43.5131 16.5856 43.542 16.7495 43.5352 16.9138C43.5284 17.0781 43.486 17.239 43.411 17.3854C42.7872 18.8097 41.7647 20.0231 40.4667 20.8794C39.1688 21.7356 37.6508 22.1981 36.0959 22.2111Z" fill="#F8F8F8"/>
</svg>
