<svg width="36" height="33" viewBox="0 0 36 33" fill="none" xmlns="http://www.w3.org/2000/svg">
<path d="M20.177 26.4099H15.406C15.0697 26.4204 14.7391 26.5 14.435 26.6438C14.1308 26.7877 13.8595 26.9927 13.6381 27.246C13.4166 27.4994 13.2498 27.7956 13.1479 28.1163C13.046 28.437 13.0114 28.7752 13.046 29.1099V32.8099H14.674V29.5399C14.6743 29.4731 14.7009 29.4092 14.7481 29.362C14.7953 29.3148 14.8593 29.2882 14.926 29.2879C14.9596 29.2859 14.9933 29.291 15.0248 29.3029C15.0563 29.3149 15.0849 29.3334 15.1087 29.3572C15.1326 29.381 15.151 29.4096 15.163 29.4411C15.1749 29.4726 15.18 29.5063 15.178 29.5399V32.7959H20.416V29.5399C20.4237 29.479 20.4534 29.4231 20.4994 29.3825C20.5454 29.342 20.6047 29.3196 20.666 29.3196C20.7274 29.3196 20.7866 29.342 20.8326 29.3825C20.8786 29.4231 20.9083 29.479 20.916 29.5399V32.7959H22.546V29.1229C22.5851 28.786 22.5533 28.4447 22.4527 28.1208C22.3521 27.7969 22.185 27.4976 21.9619 27.2422C21.7388 26.9867 21.4648 26.7807 21.1574 26.6374C20.85 26.4941 20.5161 26.4166 20.177 26.4099Z" fill="#BFBFBF"/>
<path d="M28.97 23.8988C28.97 24.3181 29.0943 24.728 29.3273 25.0766C29.5602 25.4252 29.8913 25.697 30.2787 25.8574C30.6661 26.0179 31.0924 26.0599 31.5036 25.9781C31.9148 25.8963 32.2926 25.6944 32.5891 25.3979C32.8856 25.1014 33.0875 24.7236 33.1693 24.3124C33.2511 23.9012 33.2091 23.4749 33.0486 23.0875C32.8882 22.7001 32.6164 22.369 32.2678 22.1361C31.9192 21.9031 31.5093 21.7788 31.09 21.7788C30.8115 21.7784 30.5356 21.833 30.2782 21.9394C30.0208 22.0458 29.787 22.2019 29.5901 22.3989C29.3931 22.5958 29.237 22.8297 29.1306 23.0871C29.0242 23.3444 28.9696 23.6203 28.97 23.8988Z" fill="#BFBFBF"/>
<path d="M28.756 26.4099C28.4197 26.4204 28.0891 26.5 27.785 26.6439C27.4808 26.7877 27.2095 26.9927 26.9881 27.2461C26.7666 27.4994 26.5998 27.7956 26.4979 28.1163C26.396 28.437 26.3614 28.7753 26.396 29.1099V32.81H28.024V29.5409C28.0243 29.4742 28.0509 29.4103 28.0981 29.3631C28.1453 29.3159 28.2093 29.2892 28.276 29.2889C28.3096 29.2869 28.3433 29.292 28.3748 29.304C28.4063 29.3159 28.4349 29.3344 28.4587 29.3582C28.4826 29.382 28.5011 29.4106 28.513 29.4421C28.5249 29.4736 28.5301 29.5073 28.528 29.5409V32.797H33.766V29.5409C33.7615 29.5055 33.7646 29.4694 33.7751 29.4352C33.7856 29.4011 33.8033 29.3695 33.8269 29.3427C33.8506 29.3158 33.8797 29.2943 33.9123 29.2796C33.9449 29.2649 33.9802 29.2573 34.016 29.2573C34.0518 29.2573 34.0871 29.2649 34.1197 29.2796C34.1523 29.2943 34.1814 29.3158 34.2051 29.3427C34.2287 29.3695 34.2464 29.4011 34.2569 29.4352C34.2674 29.4694 34.2705 29.5055 34.266 29.5409V32.797H35.896V29.1239C35.9365 28.7869 35.9061 28.445 35.8068 28.1204C35.7074 27.7958 35.5413 27.4955 35.3191 27.2388C35.0969 26.9821 34.8235 26.7747 34.5164 26.6299C34.2094 26.4851 33.8754 26.4061 33.536 26.3979H28.756V26.4099Z" fill="#BFBFBF"/>
<path d="M5.012 26.0178C6.18285 26.0178 7.132 25.0687 7.132 23.8978C7.132 22.727 6.18285 21.7778 5.012 21.7778C3.84116 21.7778 2.892 22.727 2.892 23.8978C2.892 25.0687 3.84116 26.0178 5.012 26.0178Z" fill="#BFBFBF"/>
<path d="M1.856 32.797V29.5409C1.85626 29.4742 1.8829 29.4103 1.9301 29.3631C1.9773 29.3159 2.04125 29.2892 2.108 29.2889C2.14163 29.2869 2.1753 29.292 2.2068 29.304C2.2383 29.3159 2.26691 29.3344 2.29073 29.3582C2.31455 29.382 2.33304 29.4106 2.34498 29.4421C2.35693 29.4736 2.36204 29.5073 2.36 29.5409V32.797H7.598V29.5409C7.60571 29.4801 7.63536 29.4241 7.68139 29.3836C7.72741 29.343 7.78665 29.3206 7.848 29.3206C7.90935 29.3206 7.96859 29.343 8.01461 29.3836C8.06064 29.4241 8.09029 29.4801 8.098 29.5409V32.797H9.726V29.1239C9.76651 28.7869 9.73612 28.445 9.63678 28.1204C9.53743 27.7958 9.37133 27.4955 9.14911 27.2388C8.9269 26.9821 8.65349 26.7747 8.34642 26.6299C8.03935 26.4851 7.7054 26.4061 7.366 26.3979H2.601C2.26469 26.4084 1.93413 26.488 1.62996 26.6319C1.32578 26.7757 1.05451 26.9807 0.833076 27.2341C0.611637 27.4874 0.44478 27.7837 0.342912 28.1043C0.241044 28.425 0.206352 28.7633 0.241 29.0979V32.7979L1.856 32.797Z" fill="#BFBFBF"/>
<path d="M15.676 23.8988C15.676 24.3181 15.8003 24.728 16.0333 25.0766C16.2662 25.4252 16.5973 25.697 16.9847 25.8574C17.3721 26.0179 17.7984 26.0599 18.2096 25.9781C18.6208 25.8963 18.9986 25.6944 19.2951 25.3979C19.5916 25.1014 19.7935 24.7236 19.8753 24.3124C19.9571 23.9012 19.9151 23.4749 19.7546 23.0875C19.5942 22.7001 19.3224 22.369 18.9738 22.1361C18.6252 21.9031 18.2153 21.7788 17.796 21.7788C17.5175 21.7784 17.2416 21.833 16.9842 21.9394C16.7269 22.0458 16.493 22.2019 16.2961 22.3989C16.0991 22.5958 15.943 22.8297 15.8366 23.0871C15.7302 23.3444 15.6756 23.6203 15.676 23.8988Z" fill="#BFBFBF"/>
<path d="M27.348 20.7429C28.5188 20.7429 29.468 19.7938 29.468 18.6229C29.468 17.4521 28.5188 16.5029 27.348 16.5029C26.1772 16.5029 25.228 17.4521 25.228 18.6229C25.228 19.7938 26.1772 20.7429 27.348 20.7429Z" fill="white"/>
<path d="M24.37 26.0178C25.5408 26.0178 26.49 25.0687 26.49 23.8978C26.49 22.727 25.5408 21.7778 24.37 21.7778C23.1992 21.7778 22.25 22.727 22.25 23.8978C22.25 25.0687 23.1992 26.0178 24.37 26.0178Z" fill="white"/>
<path d="M21.192 20.7429C22.3628 20.7429 23.312 19.7938 23.312 18.6229C23.312 17.4521 22.3628 16.5029 21.192 16.5029C20.0212 16.5029 19.072 17.4521 19.072 18.6229C19.072 19.7938 20.0212 20.7429 21.192 20.7429Z" fill="white"/>
<path d="M8.475 20.7429C9.64584 20.7429 10.595 19.7938 10.595 18.6229C10.595 17.4521 9.64584 16.5029 8.475 16.5029C7.30416 16.5029 6.355 17.4521 6.355 18.6229C6.355 19.7938 7.30416 20.7429 8.475 20.7429Z" fill="white"/>
<path d="M15.007 20.7429C16.1778 20.7429 17.127 19.7938 17.127 18.6229C17.127 17.4521 16.1778 16.5029 15.007 16.5029C13.8362 16.5029 12.887 17.4521 12.887 18.6229C12.887 19.7938 13.8362 20.7429 15.007 20.7429Z" fill="white"/>
<path d="M11.755 26.0178C12.9258 26.0178 13.875 25.0687 13.875 23.8978C13.875 22.727 12.9258 21.7778 11.755 21.7778C10.5842 21.7778 9.635 22.727 9.635 23.8978C9.635 25.0687 10.5842 26.0178 11.755 26.0178Z" fill="white"/>
<path d="M17.936 13.9809C19.2217 13.9841 20.4794 13.6059 21.5501 12.8942C22.6208 12.1826 23.4564 11.1693 23.9513 9.98271C24.4461 8.79609 24.5779 7.48938 24.33 6.22783C24.0822 4.96629 23.4658 3.80658 22.5588 2.89539C21.6518 1.98419 20.4949 1.36243 19.2345 1.10875C17.9742 0.855069 16.6669 0.980856 15.478 1.4702C14.2891 1.95955 13.272 2.79048 12.5554 3.8579C11.8388 4.92532 11.4548 6.18128 11.452 7.46694C11.4501 9.18994 12.1317 10.8433 13.3473 12.0645C14.5628 13.2856 16.213 13.9748 17.936 13.9809ZM21.028 4.89394C21.2477 4.89874 21.461 4.96856 21.641 5.09457C21.8209 5.22058 21.9595 5.39714 22.0392 5.6019C22.1188 5.80667 22.136 6.03045 22.0885 6.24497C22.0409 6.45948 21.9309 6.65509 21.7722 6.80705C21.6135 6.95902 21.4133 7.06053 21.197 7.09874C20.9806 7.13696 20.7578 7.11016 20.5566 7.02174C20.3555 6.93331 20.1851 6.78724 20.067 6.60198C19.9489 6.41673 19.8883 6.2006 19.893 5.98094C19.8917 5.83356 19.9206 5.68748 19.9778 5.55166C20.0351 5.41585 20.1195 5.29318 20.2259 5.19118C20.3323 5.08919 20.4584 5.01003 20.5965 4.95857C20.7346 4.90711 20.8818 4.88444 21.029 4.89194L21.028 4.89394ZM15.084 4.89394C15.2318 4.89433 15.3779 4.9242 15.514 4.98178C15.6501 5.03936 15.7733 5.12351 15.8765 5.22929C15.9796 5.33508 16.0606 5.46037 16.1148 5.59785C16.1689 5.73533 16.1951 5.88223 16.1918 6.02994C16.1884 6.17766 16.1557 6.32323 16.0954 6.45813C16.0351 6.59303 15.9486 6.71455 15.8408 6.81559C15.7329 6.91662 15.6061 6.99514 15.4675 7.04654C15.329 7.09794 15.1816 7.1212 15.034 7.11494C14.7434 7.10263 14.4693 6.97686 14.2704 6.76465C14.0715 6.55243 13.9638 6.2707 13.9703 5.97993C13.9769 5.68917 14.0972 5.41256 14.3054 5.20951C14.5136 5.00646 14.7932 4.89316 15.084 4.89394Z" fill="#BFBFBF"/>
<path d="M18.0919 11.9899C17.3028 11.9903 16.5301 11.7647 15.8652 11.3397C15.2003 10.9148 14.6711 10.3083 14.3401 9.59196C14.2812 9.44714 14.2812 9.28505 14.34 9.1402C14.3988 8.99535 14.5118 8.87917 14.655 8.81639C14.8159 8.7639 14.9901 8.76895 15.1477 8.83068C15.3053 8.89241 15.4365 9.00699 15.519 9.1548C15.7526 9.64496 16.1195 10.0594 16.5776 10.3508C17.0358 10.6421 17.5668 10.7986 18.1097 10.8022C18.649 10.8004 19.1756 10.6381 19.6224 10.3361C20.0692 10.034 20.416 9.60588 20.6186 9.10612C20.649 9.03121 20.694 8.96311 20.751 8.90582C20.808 8.84853 20.8759 8.8032 20.9506 8.77249C21.0254 8.74178 21.1055 8.7263 21.1863 8.72697C21.2672 8.72764 21.347 8.74444 21.4213 8.77638C21.4998 8.80188 21.5718 8.84416 21.6324 8.90028C21.6929 8.9564 21.7405 9.02502 21.7719 9.10138C21.8033 9.17775 21.8176 9.26002 21.814 9.3425C21.8104 9.42497 21.7889 9.50568 21.751 9.57901C21.4387 10.291 20.9271 10.8975 20.2778 11.3253C19.6286 11.7531 18.8694 11.9839 18.0919 11.9899Z" fill="#171717"/>
</svg>
