<svg width="72" height="65" viewBox="0 0 72 65" fill="none" xmlns="http://www.w3.org/2000/svg">
<path d="M64.663 0.608002H21.874C19.9828 0.608002 18.169 1.3593 16.8316 2.69662C15.4943 4.03395 14.743 5.84774 14.743 7.739V43.397C14.743 45.2883 15.4943 47.1021 16.8316 48.4394C18.169 49.7767 19.9828 50.528 21.874 50.528H29.005V57.659C29.0048 58.2885 29.1713 58.9067 29.4876 59.451C29.8038 59.9953 30.2585 60.4461 30.8054 60.7576C31.3524 61.0692 31.9721 61.2304 32.6015 61.2248C33.2309 61.2193 33.8477 61.0472 34.389 60.726L51.398 50.526H64.663C66.5543 50.526 68.3681 49.7747 69.7054 48.4374C71.0427 47.1001 71.794 45.2863 71.794 43.395V7.739C71.794 5.84774 71.0427 4.03395 69.7054 2.69662C68.3681 1.3593 66.5543 0.608002 64.663 0.608002Z" fill="#CBAAD5"/>
<path d="M18.309 64.791H7.61101C5.71975 64.791 3.90595 64.0397 2.56863 62.7024C1.23131 61.3651 0.480011 59.5513 0.480011 57.66V18.437C0.495675 17.5017 0.878213 16.61 1.54517 15.9541C2.21213 15.2983 3.11009 14.9307 4.04551 14.9307C4.98093 14.9307 5.8789 15.2983 6.54585 15.9541C7.21281 16.61 7.59535 17.5017 7.61101 18.437V57.66H18.311C18.7843 57.6521 19.2544 57.7384 19.6939 57.9141C20.1334 58.0897 20.5336 58.3511 20.8711 58.6829C21.2085 59.0148 21.4766 59.4105 21.6595 59.8471C21.8425 60.2836 21.9367 60.7522 21.9367 61.2255C21.9367 61.6988 21.8425 62.1674 21.6595 62.6039C21.4766 63.0405 21.2085 63.4362 20.8711 63.7681C20.5336 64.0999 20.1334 64.3613 19.6939 64.5369C19.2544 64.7126 18.7843 64.7989 18.311 64.791H18.309ZM34.355 20.22C33.2971 20.2198 32.2629 20.5333 31.3832 21.1208C30.5035 21.7084 29.8177 22.5436 29.4127 23.5209C29.0076 24.4981 28.9014 25.5736 29.1075 26.6112C29.3136 27.6488 29.8228 28.602 30.5706 29.3503C31.3185 30.0985 32.2714 30.6082 33.3089 30.8149C34.3464 31.0216 35.4219 30.916 36.3994 30.5115C37.3769 30.107 38.2125 29.4217 38.8005 28.5423C39.3885 27.6629 39.7026 26.6289 39.703 25.571C39.7033 24.8685 39.5651 24.1728 39.2965 23.5236C39.0279 22.8745 38.634 22.2846 38.1374 21.7877C37.6408 21.2908 37.0511 20.8966 36.4021 20.6276C35.7532 20.3586 35.0575 20.2201 34.355 20.22ZM52.184 20.22C51.1261 20.2198 50.0919 20.5333 49.2122 21.1208C48.3325 21.7084 47.6467 22.5436 47.2417 23.5209C46.8366 24.4981 46.7304 25.5736 46.9365 26.6112C47.1426 27.6488 47.6518 28.602 48.3996 29.3503C49.1475 30.0985 50.1004 30.6082 51.1379 30.8149C52.1754 31.0216 53.2509 30.916 54.2284 30.5115C55.2059 30.107 56.0415 29.4217 56.6295 28.5423C57.2175 27.6629 57.5316 26.6289 57.532 25.571C57.5323 24.8681 57.394 24.1721 57.1251 23.5227C56.8562 22.8733 56.462 22.2833 55.965 21.7863C55.4679 21.2894 54.8778 20.8953 54.2284 20.6265C53.5789 20.3577 52.8829 20.2196 52.18 20.22H52.184Z" fill="#681C7F"/>
</svg>
