<svg width="35" height="33" viewBox="0 0 35 33" fill="none" xmlns="http://www.w3.org/2000/svg">
<path d="M24.5 17.29H20C19.4477 17.29 19 17.7378 19 18.29V26.79C19 27.3423 19.4477 27.79 20 27.79H24.5C25.0523 27.79 25.5 27.3423 25.5 26.79V18.29C25.5 17.7378 25.0523 17.29 24.5 17.29Z" fill="white"/>
<path d="M34 10.79H29.5C28.9477 10.79 28.5 11.2378 28.5 11.79V26.79C28.5 27.3423 28.9477 27.79 29.5 27.79H34C34.5523 27.79 35 27.3423 35 26.79V11.79C35 11.2378 34.5523 10.79 34 10.79Z" fill="white"/>
<path d="M15 15.29H10.5C9.94772 15.29 9.5 15.7378 9.5 16.29V26.79C9.5 27.3423 9.94772 27.79 10.5 27.79H15C15.5523 27.79 16 27.3423 16 26.79V16.29C16 15.7378 15.5523 15.29 15 15.29Z" fill="white"/>
<path d="M5.5 20.29H1C0.447715 20.29 0 20.7378 0 21.29V26.79C0 27.3423 0.447715 27.79 1 27.79H5.5C6.05228 27.79 6.5 27.3423 6.5 26.79V21.29C6.5 20.7378 6.05228 20.29 5.5 20.29Z" fill="white"/>
<path d="M34.919 25.855H0V29.055C0.0399774 29.9419 0.430014 30.7769 1.0846 31.3767C1.73919 31.9766 2.60492 32.2924 3.492 32.255H31.427C32.3141 32.2924 33.1798 31.9766 33.8344 31.3767C34.489 30.7769 34.879 29.9419 34.919 29.055V25.855Z" fill="#E4E4E4"/>
<path d="M3.2 17.3331H1.065C0.925142 17.3331 0.786654 17.3056 0.657442 17.252C0.52823 17.1985 0.410826 17.1201 0.311931 17.0212C0.213037 16.9223 0.13459 16.8049 0.0810683 16.6757C0.0275471 16.5464 0 16.408 0 16.2681C0 16.1282 0.0275471 15.9898 0.0810683 15.8605C0.13459 15.7313 0.213037 15.6139 0.311931 15.515C0.410826 15.4161 0.52823 15.3377 0.657442 15.2842C0.786654 15.2306 0.925142 15.2031 1.065 15.2031H2.684L9.584 6.6171C9.66689 6.4972 9.7735 6.39559 9.89725 6.31857C10.021 6.24154 10.1592 6.19074 10.3034 6.1693C10.4476 6.14786 10.5946 6.15624 10.7354 6.19393C10.8762 6.23162 11.0078 6.29781 11.122 6.38841C11.2362 6.479 11.3305 6.59207 11.3993 6.72062C11.468 6.84916 11.5096 6.99044 11.5215 7.13571C11.5334 7.28099 11.5154 7.42716 11.4685 7.56517C11.4216 7.70319 11.3469 7.83012 11.249 7.9381L4.027 16.9291C3.92814 17.054 3.80252 17.1551 3.6594 17.2251C3.51627 17.295 3.35929 17.3319 3.2 17.3331Z" fill="white"/>
<path d="M24.533 11.411C24.3334 11.4099 24.1381 11.3527 23.9693 11.246C23.8006 11.1393 23.6652 10.9874 23.5786 10.8075C23.492 10.6276 23.4577 10.427 23.4795 10.2286C23.5013 10.0301 23.5784 9.84181 23.702 9.68504L30.892 0.690039C30.9917 0.565347 31.1181 0.464659 31.262 0.395422C31.4058 0.326184 31.5634 0.290169 31.723 0.290039H33.853C34.1355 0.290039 34.4063 0.402244 34.6061 0.60197C34.8058 0.801697 34.918 1.07258 34.918 1.35504C34.918 1.63749 34.8058 1.90838 34.6061 2.10811C34.4063 2.30783 34.1355 2.42004 33.853 2.42004H32.235L25.335 11.006C25.2389 11.1279 25.1173 11.2273 24.9788 11.2973C24.8403 11.3672 24.6881 11.406 24.533 11.411Z" fill="white"/>
<path d="M15.54 6.04014L14.262 7.74414L19.3748 11.5787L20.6528 9.87474L15.54 6.04014Z" fill="white"/>
<path d="M12.75 8.79004C14.5449 8.79004 16 7.33496 16 5.54004C16 3.74511 14.5449 2.29004 12.75 2.29004C10.9551 2.29004 9.5 3.74511 9.5 5.54004C9.5 7.33496 10.9551 8.79004 12.75 8.79004Z" fill="#E4E4E4"/>
<path d="M22.677 14.935C24.4421 14.935 25.873 13.5041 25.873 11.739C25.873 9.97387 24.4421 8.54297 22.677 8.54297C20.9119 8.54297 19.481 9.97387 19.481 11.739C19.481 13.5041 20.9119 14.935 22.677 14.935Z" fill="#E4E4E4"/>
</svg>
