<svg width="71" height="65" viewBox="0 0 71 65" fill="none" xmlns="http://www.w3.org/2000/svg">
<path d="M50.191 34.726H39.191C38.6388 34.726 38.191 35.1737 38.191 35.726V54.726C38.191 55.2782 38.6388 55.726 39.191 55.726H50.191C50.7433 55.726 51.191 55.2782 51.191 54.726V35.726C51.191 35.1737 50.7433 34.726 50.191 34.726Z" fill="#C3D7FC"/>
<path d="M69.191 21.726H58.191C57.6388 21.726 57.191 22.1737 57.191 22.726V54.726C57.191 55.2782 57.6388 55.726 58.191 55.726H69.191C69.7433 55.726 70.191 55.2782 70.191 54.726V22.726C70.191 22.1737 69.7433 21.726 69.191 21.726Z" fill="#C3D7FC"/>
<path d="M31.191 30.726H20.191C19.6388 30.726 19.191 31.1737 19.191 31.726V54.726C19.191 55.2782 19.6388 55.726 20.191 55.726H31.191C31.7433 55.726 32.191 55.2782 32.191 54.726V31.726C32.191 31.1737 31.7433 30.726 31.191 30.726Z" fill="#C3D7FC"/>
<path d="M12.191 40.726H1.19104C0.638755 40.726 0.19104 41.1737 0.19104 41.726V54.726C0.19104 55.2782 0.638755 55.726 1.19104 55.726H12.191C12.7433 55.726 13.191 55.2782 13.191 54.726V41.726C13.191 41.1737 12.7433 40.726 12.191 40.726Z" fill="#C3D7FC"/>
<path d="M70.028 51.857H0.19104V58.248C0.19104 61.778 3.31804 64.639 7.17504 64.639H63.045C66.902 64.639 70.029 61.777 70.029 58.248L70.028 51.857Z" fill="#5775D8"/>
<path d="M6.58205 34.813H2.32105C1.75601 34.813 1.21411 34.5885 0.814561 34.189C0.415015 33.7894 0.190552 33.2475 0.190552 32.6825C0.190552 32.1174 0.415015 31.5755 0.814561 31.176C1.21411 30.7764 1.75601 30.552 2.32105 30.552H5.56005L19.3651 13.381C19.5292 13.1374 19.7419 12.9304 19.9899 12.773C20.2379 12.6156 20.5158 12.5112 20.806 12.4663C21.0963 12.4215 21.3927 12.4371 21.6767 12.5123C21.9606 12.5875 22.2259 12.7206 22.4559 12.9033C22.6859 13.0859 22.8757 13.3142 23.0133 13.5737C23.1509 13.8332 23.2333 14.1183 23.2554 14.4112C23.2774 14.7041 23.2387 14.9984 23.1416 15.2756C23.0445 15.5528 22.8911 15.8069 22.6911 16.022L8.24405 34.004C8.04559 34.255 7.79311 34.4581 7.50538 34.5982C7.21765 34.7382 6.90206 34.8116 6.58205 34.813Z" fill="#C3D7FC"/>
<path d="M49.2571 22.968C48.858 22.9655 48.4676 22.8511 48.1303 22.6378C47.793 22.4244 47.5224 22.1206 47.3492 21.7611C47.176 21.4015 47.1073 21.0005 47.1507 20.6038C47.1942 20.2071 47.3482 19.8305 47.5951 19.517L61.9761 1.53595C62.1743 1.28487 62.4266 1.08167 62.7142 0.941438C63.0017 0.80121 63.3172 0.727559 63.6371 0.725952H67.8981C68.4631 0.725952 69.005 0.950415 69.4046 1.34996C69.8041 1.74951 70.0286 2.29141 70.0286 2.85645C70.0286 3.4215 69.8041 3.9634 69.4046 4.36294C69.005 4.76249 68.4631 4.98695 67.8981 4.98695H64.6601L50.8551 22.159C50.6634 22.4017 50.4212 22.5999 50.1453 22.7396C49.8693 22.8793 49.5662 22.9572 49.2571 22.968Z" fill="#C3D7FC"/>
<path d="M31.2717 12.2252L28.7151 15.634L38.9415 23.3038L41.4981 19.895L31.2717 12.2252Z" fill="#C3D7FC"/>
<path d="M25.691 17.726C29.2809 17.726 32.191 14.8158 32.191 11.226C32.191 7.6361 29.2809 4.72595 25.691 4.72595C22.1012 4.72595 19.191 7.6361 19.191 11.226C19.191 14.8158 22.1012 17.726 25.691 17.726Z" fill="#5775D8"/>
<path d="M45.5451 30.014C49.0747 30.014 51.9361 27.1526 51.9361 23.623C51.9361 20.0933 49.0747 17.232 45.5451 17.232C42.0154 17.232 39.1541 20.0933 39.1541 23.623C39.1541 27.1526 42.0154 30.014 45.5451 30.014Z" fill="#5775D8"/>
</svg>
