<svg width="46" height="26" viewBox="0 0 46 26" fill="none" xmlns="http://www.w3.org/2000/svg">
<path d="M2.32741 20V4.72727H12.6186V7.38956H5.55646V11.0288H12.0891V13.6911H5.55646V17.3377H12.6484V20H2.32741ZM23.471 9.11967C23.4113 8.51811 23.1553 8.05078 22.7029 7.71768C22.2504 7.38459 21.6365 7.21804 20.8609 7.21804C20.3339 7.21804 19.8889 7.29261 19.526 7.44176C19.1631 7.58594 18.8847 7.78729 18.6908 8.04581C18.5019 8.30433 18.4074 8.59766 18.4074 8.92578C18.3975 9.19922 18.4546 9.43786 18.5789 9.64169C18.7082 9.84553 18.8847 10.022 19.1084 10.1712C19.3321 10.3153 19.5906 10.4421 19.884 10.5515C20.1773 10.6559 20.4905 10.7454 20.8236 10.82L22.1958 11.1481C22.8619 11.2972 23.4735 11.4961 24.0303 11.7447C24.5871 11.9933 25.0693 12.299 25.477 12.6619C25.8847 13.0249 26.2004 13.4524 26.4241 13.9446C26.6528 14.4368 26.7696 15.0011 26.7746 15.6374C26.7696 16.5721 26.531 17.3825 26.0587 18.0685C25.5914 18.7496 24.9152 19.2791 24.0303 19.657C23.1503 20.0298 22.0889 20.2163 20.846 20.2163C19.613 20.2163 18.5392 20.0273 17.6244 19.6495C16.7146 19.2717 16.0036 18.7124 15.4916 17.9716C14.9845 17.2259 14.7185 16.3036 14.6936 15.2049H17.8183C17.8531 15.717 17.9997 16.1445 18.2583 16.4876C18.5218 16.8256 18.8722 17.0817 19.3097 17.2557C19.7522 17.4247 20.2519 17.5092 20.8087 17.5092C21.3556 17.5092 21.8303 17.4297 22.233 17.2706C22.6407 17.1115 22.9564 16.8903 23.1801 16.6069C23.4039 16.3235 23.5157 15.9979 23.5157 15.63C23.5157 15.2869 23.4138 14.9986 23.21 14.7649C23.0111 14.5312 22.7178 14.3324 22.33 14.1683C21.9472 14.0043 21.4774 13.8551 20.9205 13.7209L19.2575 13.3033C17.9699 12.9901 16.9532 12.5004 16.2075 11.8342C15.4617 11.168 15.0914 10.2706 15.0963 9.14204C15.0914 8.21733 15.3374 7.40945 15.8346 6.7184C16.3367 6.02734 17.0253 5.48793 17.9003 5.10014C18.7753 4.71236 19.7696 4.51847 20.8833 4.51847C22.0168 4.51847 23.0061 4.71236 23.8513 5.10014C24.7014 5.48793 25.3627 6.02734 25.835 6.7184C26.3073 7.40945 26.5509 8.20987 26.5658 9.11967H23.471ZM39.0737 9.66406C38.9693 9.30114 38.8226 8.98047 38.6337 8.70206C38.4448 8.41868 38.2136 8.18004 37.9402 7.98615C37.6717 7.78729 37.3635 7.63565 37.0154 7.53125C36.6724 7.42685 36.2921 7.37465 35.8745 7.37465C35.0939 7.37465 34.4078 7.56854 33.8162 7.95632C33.2296 8.3441 32.7722 8.90838 32.4441 9.64915C32.1159 10.3849 31.9519 11.2848 31.9519 12.3487C31.9519 13.4126 32.1135 14.3175 32.4366 15.0632C32.7598 15.8089 33.2172 16.3782 33.8088 16.771C34.4004 17.1587 35.0989 17.3526 35.9043 17.3526C36.6351 17.3526 37.2591 17.2234 37.7761 16.9648C38.2981 16.7013 38.6958 16.331 38.9693 15.8537C39.2477 15.3764 39.3869 14.8121 39.3869 14.1609L40.0431 14.2578H36.1056V11.8267H42.4966V13.7507C42.4966 15.093 42.2132 16.2464 41.6465 17.2109C41.0797 18.1705 40.2992 18.9112 39.3049 19.4332C38.3105 19.9503 37.1721 20.2088 35.8894 20.2088C34.4576 20.2088 33.1998 19.8931 32.1159 19.2617C31.0321 18.6254 30.187 17.723 29.5804 16.5547C28.9789 15.3814 28.6781 13.9893 28.6781 12.3786C28.6781 11.1406 28.8571 10.0369 29.215 9.06747C29.5779 8.09304 30.085 7.26776 30.7363 6.59162C31.3876 5.91548 32.1458 5.40092 33.0108 5.04794C33.8759 4.69496 34.813 4.51847 35.8223 4.51847C36.6873 4.51847 37.4927 4.64524 38.2385 4.89879C38.9842 5.14737 39.6454 5.50035 40.2221 5.95774C40.8038 6.41513 41.2786 6.95952 41.6465 7.59091C42.0144 8.21733 42.2505 8.90838 42.3549 9.66406H39.0737Z" fill="white"/>
<path d="M1.5 24.5H44.5" stroke="#BFBFBF" stroke-width="3" stroke-linecap="round"/>
</svg>
