<svg width="31" height="52" viewBox="0 0 31 52" fill="none" xmlns="http://www.w3.org/2000/svg">
<path d="M17.457 21.8459C14.4621 21.4137 11.4067 21.9072 8.70018 23.2604C5.99369 24.6136 3.7655 26.7617 2.31425 29.4169C0.863004 32.0721 0.25805 35.1074 0.580478 38.1161C0.902906 41.1248 2.13731 43.9631 4.11823 46.2504C6.09915 48.5378 8.73193 50.165 11.6637 50.914C14.5955 51.6629 17.6861 51.4978 20.5214 50.4408C23.3567 49.3837 25.8011 47.4853 27.527 44.9999C29.253 42.5144 30.1779 39.5608 30.178 36.5349C30.1658 32.9695 28.8756 29.5267 26.5414 26.8314C24.2073 24.1362 20.9841 22.3673 17.457 21.8459ZM4.94899 38.6589H9.03099C9.12785 41.0789 9.51838 43.4782 10.194 45.8039C8.85729 45.0603 7.69675 44.037 6.79158 42.8039C5.88641 41.5709 5.25792 40.1571 4.94899 38.6589ZM9.03099 34.4189H4.94899C5.25792 32.9208 5.88641 31.507 6.79158 30.2739C7.69675 29.0409 8.85729 28.0176 10.194 27.2739C9.51838 29.5997 9.12785 31.999 9.03099 34.4189ZM15.337 46.9479C14.653 46.0789 13.548 43.2599 13.278 38.6599H17.396C17.126 43.2599 16.019 46.0789 15.336 46.9459L15.337 46.9479ZM15.337 34.4189H13.278C13.548 29.8189 14.653 26.9999 15.337 26.1309C16.021 26.9999 17.126 29.8189 17.396 34.4189H15.337ZM20.48 45.8049C21.1556 43.4792 21.5461 41.0799 21.643 38.6599H25.725C25.4159 40.1581 24.7872 41.572 23.8819 42.805C22.9765 44.0381 21.8158 45.0613 20.479 45.8049H20.48ZM21.643 34.4189C21.5461 31.999 21.1556 29.5997 20.48 27.2739C21.8167 28.0175 22.9773 29.0408 23.8825 30.2739C24.7876 31.5069 25.4161 32.9208 25.725 34.4189H21.643Z" fill="#BFBFBF"/>
<path d="M30.302 2.21096C30.2535 1.78141 30.0748 1.37697 29.7899 1.05185C29.5049 0.726734 29.1275 0.496481 28.708 0.391961C27.5439 0.130919 26.354 0.00309746 25.161 0.0109608C23.527 -0.0533919 21.8967 0.209846 20.3659 0.785173C18.8352 1.3605 17.4351 2.23629 16.248 3.36096C15.9222 3.68684 15.6178 4.03357 15.337 4.39896C15.0558 4.03324 14.7512 3.68618 14.425 3.35996C13.2329 2.24251 11.832 1.37145 10.3024 0.79674C8.77292 0.222033 7.14497 -0.045 5.512 0.0109608C4.31871 0.00294364 3.12839 0.130766 1.96401 0.391961C1.54473 0.496658 1.16746 0.726987 0.882753 1.05209C0.598043 1.37719 0.419487 1.78154 0.371004 2.21096C0.277004 3.05496 -0.434999 10.567 3.39 14.392C4.58207 15.5094 5.98306 16.3805 7.51258 16.9552C9.04209 17.5299 10.67 17.7969 12.303 17.741C12.623 17.741 12.928 17.732 13.217 17.716V21.846C14.6231 21.6432 16.0509 21.6432 17.457 21.846V17.716C17.745 17.731 18.05 17.741 18.371 17.741C20.0048 17.8054 21.6349 17.5423 23.1655 16.9672C24.696 16.392 26.096 15.5164 27.283 14.392C31.107 10.57 30.395 3.05896 30.302 2.21096Z" fill="white"/>
<path d="M15.336 4.39891C15.0548 4.03319 14.7502 3.68613 14.424 3.35991C13.2321 2.24258 11.8312 1.37159 10.3019 0.796884C8.77256 0.222181 7.1448 -0.0449172 5.512 0.0109107C4.31871 0.0028936 3.12839 0.130716 1.96401 0.391911C1.54473 0.496608 1.16746 0.726937 0.882753 1.05204C0.598043 1.37714 0.419487 1.78149 0.371004 2.21091C0.277004 3.05491 -0.434999 10.5669 3.39 14.3919C4.58207 15.5094 5.98306 16.3804 7.51258 16.9551C9.04209 17.5298 10.67 17.7969 12.303 17.7409C12.623 17.7409 12.928 17.7319 13.217 17.7159V21.8459C13.9192 21.7448 14.6276 21.694 15.337 21.6939L15.336 4.39891Z" fill="white"/>
<path d="M13.277 38.659H15.336V34.419H13.277C13.547 29.819 14.652 27 15.336 26.131V21.698C13.387 21.698 11.4571 22.0819 9.65641 22.8277C7.85576 23.5736 6.21964 24.6668 4.84148 26.045C3.46332 27.4231 2.3701 29.0592 1.62424 30.8599C0.878389 32.6605 0.494507 34.5905 0.494507 36.5395C0.494507 38.4885 0.878389 40.4184 1.62424 42.2191C2.3701 44.0198 3.46332 45.6559 4.84148 47.034C6.21964 48.4122 7.85576 49.5054 9.65641 50.2513C11.4571 50.9971 13.387 51.381 15.336 51.381V46.947C14.652 46.079 13.547 43.26 13.277 38.659ZM4.94901 38.659H9.03101C9.12787 41.079 9.5184 43.4782 10.194 45.804C8.85731 45.0603 7.69677 44.0371 6.7916 42.804C5.88643 41.5709 5.25794 40.1571 4.94901 38.659ZM9.03101 34.419H4.94901C5.25794 32.9209 5.88643 31.5071 6.7916 30.274C7.69677 29.0409 8.85731 28.0177 10.194 27.274C9.5184 29.5998 9.12787 31.999 9.03101 34.419Z" fill="#BFBFBF"/>
</svg>
