<svg width="43" height="44" viewBox="0 0 43 44" fill="none" xmlns="http://www.w3.org/2000/svg">
<path d="M21.732 43.225C25.9301 43.2335 30.0366 41.9969 33.5319 39.6716C37.0273 37.3462 39.7546 34.0365 41.3689 30.1612C42.9832 26.2858 43.4121 22.0187 42.6013 17.8995C41.7904 13.7804 39.7763 9.9942 36.8136 7.01976C33.8509 4.04533 30.0728 2.01625 25.9569 1.18912C21.841 0.361994 17.5722 0.773975 13.6905 2.37296C9.80871 3.97195 6.48829 6.68612 4.14912 10.1722C1.80994 13.6584 0.557076 17.7599 0.548958 21.958C0.544164 27.5853 2.77172 32.9847 6.74294 36.9717C10.7141 40.9587 16.1047 43.2076 21.732 43.225ZM31.832 13.55C32.5493 13.5662 33.2458 13.7948 33.8333 14.2068C34.4207 14.6189 34.8728 15.1958 35.1324 15.8648C35.3919 16.5338 35.4473 17.2647 35.2914 17.9651C35.1356 18.6656 34.7755 19.304 34.2568 19.7998C33.738 20.2956 33.0839 20.6264 32.3772 20.7505C31.6704 20.8745 30.9428 20.7862 30.2862 20.4967C29.6297 20.2072 29.0737 19.7295 28.6886 19.124C28.3036 18.5185 28.1067 17.8124 28.123 17.095C28.1203 16.6149 28.2156 16.1393 28.4031 15.6973C28.5905 15.2553 28.8662 14.8562 29.2132 14.5244C29.5602 14.1926 29.9712 13.935 30.4211 13.7675C30.8711 13.5999 31.3504 13.526 31.83 13.55H31.832ZM12.42 13.55C13.3819 13.5727 14.2954 13.9766 14.9596 14.6728C15.6238 15.369 15.9841 16.3006 15.9615 17.2625C15.9388 18.2245 15.5349 19.138 14.8387 19.8022C14.1424 20.4663 13.2109 20.8267 12.249 20.804C11.2908 20.7766 10.3824 20.3712 9.72227 19.6762C9.0621 18.9813 8.70377 18.0533 8.72557 17.095C8.74737 16.1367 9.14752 15.226 9.83861 14.5618C10.5297 13.8976 11.4556 13.5338 12.414 13.55H12.42Z" fill="#E4E4E4"/>
<path d="M22.246 36.7271C19.6684 36.7289 17.1443 35.9921 14.9724 34.6039C12.8006 33.2156 11.072 31.2342 9.99133 28.8941C9.79996 28.421 9.80039 27.892 9.99254 27.4193C10.1847 26.9465 10.5534 26.5673 11.0206 26.3619C11.546 26.1911 12.1144 26.208 12.6287 26.4098C13.1429 26.6116 13.5712 26.9857 13.8402 27.4683C14.603 29.0691 15.8012 30.4228 17.2975 31.3743C18.7938 32.3259 20.5279 32.837 22.3011 32.849C24.0623 32.8426 25.7818 32.3123 27.2406 31.3256C28.6995 30.3389 29.8317 28.9404 30.4933 27.3082C30.5927 27.0639 30.7398 26.8418 30.926 26.6551C31.1122 26.4683 31.3338 26.3205 31.5778 26.2205C31.8218 26.1204 32.0834 26.07 32.3471 26.0722C32.6108 26.0744 32.8715 26.1292 33.1138 26.2334C33.3701 26.3166 33.6053 26.4546 33.803 26.6379C34.0007 26.8211 34.1561 27.0451 34.2586 27.2944C34.361 27.5437 34.408 27.8123 34.3963 28.0816C34.3845 28.3509 34.3144 28.6144 34.1906 28.8538C33.1711 31.1784 31.5011 33.1585 29.3817 34.5555C27.2624 35.9524 24.7842 36.7066 22.246 36.7271Z" fill="#F8F8F8"/>
</svg>
