<svg width="35" height="31" viewBox="0 0 35 31" fill="none" xmlns="http://www.w3.org/2000/svg">
<path d="M31.37 8.15506L24.03 3.33006C20.871 1.25406 19.292 0.216064 17.37 0.216064C15.448 0.216064 13.87 1.25406 10.71 3.33006L3.37 8.15506C2.32792 8.6953 1.4034 9.43696 0.650001 10.3371C0.242001 10.9991 0.242001 11.7431 0.242001 13.2321V24.0661C0.242001 27.3321 0.242001 28.9661 1.675 29.9791C3.108 30.9921 5.415 30.9941 10.029 30.9941H13.57L13.782 24.0661C13.782 21.9141 14.329 20.1661 17.369 20.1661C20.409 20.1661 21.683 21.5901 21.683 23.7421V30.9911H24.71C29.324 30.9911 31.631 30.9911 33.064 29.9761C34.497 28.9611 34.497 27.3291 34.497 24.0631V13.2321C34.497 11.7431 34.497 10.9991 34.089 10.3371C33.3359 9.43708 32.4117 8.69544 31.37 8.15506Z" fill="#5072CC"/>
</svg>
