<svg width="35" height="31" viewBox="0 0 35 31" fill="none" xmlns="http://www.w3.org/2000/svg">
<path d="M31.37 8.155L24.03 3.33C20.871 1.254 19.292 0.216003 17.37 0.216003C15.448 0.216003 13.87 1.254 10.71 3.33L3.37 8.155C2.32792 8.69524 1.4034 9.4369 0.650001 10.337C0.242001 10.999 0.242001 11.743 0.242001 13.232V24.066C0.242001 27.332 0.242001 28.966 1.675 29.979C3.108 30.992 5.415 30.994 10.029 30.994H13.57L13.782 24.066C13.782 21.914 14.329 20.166 17.369 20.166C20.409 20.166 21.683 21.59 21.683 23.742V30.991H24.71C29.324 30.991 31.631 30.991 33.064 29.976C34.497 28.961 34.497 27.329 34.497 24.063V13.232C34.497 11.743 34.497 10.999 34.089 10.337C33.3359 9.43702 32.4117 8.69538 31.37 8.155Z" fill="white"/>
</svg>
