<svg width="37" height="33" viewBox="0 0 37 33" fill="none" xmlns="http://www.w3.org/2000/svg">
<path d="M20.188 0.337891H3.845C2.18815 0.337891 0.845001 1.68104 0.845001 3.33789V29.4299C0.845001 31.0867 2.18815 32.4299 3.845 32.4299H20.188C21.8449 32.4299 23.188 31.0867 23.188 29.4299V3.33789C23.188 1.68104 21.8449 0.337891 20.188 0.337891Z" fill="white"/>
<path d="M31.394 6.6378C31.2515 6.53782 31.087 6.47386 30.9144 6.45139C30.7418 6.42893 30.5663 6.44862 30.403 6.5088L20.538 10.0308H15.338C14.9599 10.0292 14.5852 10.1025 14.2356 10.2464C13.886 10.3903 13.5683 10.6019 13.3008 10.8692C13.0334 11.1365 12.8215 11.454 12.6773 11.8036C12.5332 12.1531 12.4597 12.5277 12.461 12.9058V21.1558H20.538L30.403 24.6888C30.5659 24.7466 30.7402 24.7646 30.9115 24.7412C31.0827 24.7178 31.2458 24.6537 31.3872 24.5543C31.5286 24.455 31.6441 24.3232 31.7241 24.17C31.8041 24.0168 31.8463 23.8466 31.847 23.6738V7.5208C31.8478 7.34807 31.8071 7.17769 31.7283 7.02401C31.6494 6.87033 31.5348 6.73787 31.394 6.6378Z" fill="#E4E4E4"/>
<path d="M20.517 10.0308H15.337C14.9589 10.0293 14.5843 10.1027 14.2347 10.2467C13.8851 10.3908 13.5675 10.6025 13.3001 10.8699C13.0328 11.1373 12.821 11.4549 12.677 11.8045C12.5329 12.1541 12.4595 12.5287 12.461 12.9068V21.1568H20.517V10.0308Z" fill="#E4E4E4"/>
<path d="M32.924 4.646H30.77C30.4844 4.646 30.2104 4.75947 30.0084 4.96144C29.8065 5.16342 29.693 5.43736 29.693 5.723V25.464C29.6923 25.6059 29.7197 25.7464 29.7735 25.8777C29.8274 26.0089 29.9066 26.1282 30.0067 26.2288C30.1067 26.3293 30.2257 26.4091 30.3567 26.4635C30.4877 26.518 30.6281 26.546 30.77 26.546H32.924C33.3483 26.546 33.7684 26.4624 34.1604 26.3001C34.5525 26.1377 34.9086 25.8997 35.2087 25.5997C35.5087 25.2996 35.7467 24.9434 35.9091 24.5514C36.0714 24.1594 36.155 23.7393 36.155 23.315V7.877C36.155 7.02008 35.8146 6.19826 35.2087 5.59233C34.6027 4.9864 33.7809 4.646 32.924 4.646Z" fill="white"/>
<path d="M18.923 19.422C18.8226 19.2916 18.6938 19.186 18.5463 19.1132C18.3987 19.0404 18.2365 19.0023 18.072 19.002H13.538C13.2524 19.002 12.9784 19.1154 12.7764 19.3174C12.5745 19.5194 12.461 19.7933 12.461 20.079V27.079C12.461 27.3646 12.5745 27.6385 12.7764 27.8405C12.9784 28.0425 13.2524 28.156 13.538 28.156H16.23C16.4746 28.1637 16.7146 28.0879 16.9103 27.941C17.1061 27.7941 17.246 27.585 17.307 27.348L19.107 20.348C19.1488 20.1898 19.1541 20.0243 19.1223 19.8638C19.0906 19.7034 19.0228 19.5523 18.924 19.422H18.923Z" fill="#E4E4E4"/>
<path d="M6.938 0.337891L7.11 1.41489C7.10388 1.47574 7.10388 1.53704 7.11 1.59789C7.2874 2.18278 7.65269 2.69287 8.14928 3.04919C8.64588 3.4055 9.2461 3.58817 9.857 3.56889H14.273C14.8605 3.57038 15.4333 3.38565 15.9093 3.04123C16.3852 2.69681 16.7398 2.21041 16.922 1.65189C16.9281 1.59104 16.9281 1.52974 16.922 1.46889L17.094 0.391891L6.938 0.337891Z" fill="#E4E4E4"/>
</svg>
