<svg width="72" height="65" viewBox="0 0 72 65" fill="none" xmlns="http://www.w3.org/2000/svg">
<path d="M38.428 0.455994H7.742C3.87601 0.455994 0.742004 3.59 0.742004 7.45599V57.64C0.742004 61.506 3.87601 64.64 7.742 64.64H38.428C42.294 64.64 45.428 61.506 45.428 57.64V7.45599C45.428 3.59 42.294 0.455994 38.428 0.455994Z" fill="#CBAAD5"/>
<path d="M61.841 13.057C61.5562 12.8567 61.2272 12.7284 60.882 12.6832C60.5368 12.6379 60.1858 12.6769 59.859 12.797L40.129 19.842H29.729C28.9723 19.8387 28.2225 19.9853 27.5227 20.2733C26.823 20.5614 26.1873 20.9852 25.6522 21.5202C25.1172 22.0553 24.6934 22.691 24.4053 23.3907C24.1173 24.0905 23.9707 24.8403 23.974 25.597V42.097H40.129L59.859 49.157C60.1842 49.2721 60.5322 49.3078 60.8741 49.2611C61.2159 49.2144 61.5416 49.0866 61.824 48.8884C62.1064 48.6903 62.3373 48.4275 62.4976 48.1219C62.6578 47.8164 62.7426 47.477 62.745 47.132V14.823C62.7469 14.4777 62.6657 14.1371 62.5084 13.8297C62.3511 13.5224 62.1222 13.2574 61.841 13.057Z" fill="#681C7F"/>
<path d="M40.086 19.843H29.725C28.969 19.8402 28.2199 19.9871 27.5209 20.2751C26.8219 20.5631 26.1868 20.9867 25.6522 21.5212C25.1177 22.0558 24.6942 22.6909 24.4061 23.3899C24.1181 24.0889 23.9712 24.838 23.974 25.594V42.094H40.086V19.843Z" fill="#681C7F"/>
<path d="M64.901 9.073H60.593C60.0217 9.073 59.4738 9.29994 59.0699 9.70389C58.6659 10.1078 58.439 10.6557 58.439 11.227V50.71C58.439 51.2813 58.6659 51.8292 59.0699 52.2331C59.4738 52.6371 60.0217 52.864 60.593 52.864H64.901C66.6148 52.864 68.2585 52.1832 69.4703 50.9713C70.6822 49.7595 71.363 48.1158 71.363 46.402V15.535C71.363 13.8212 70.6822 12.1775 69.4703 10.9657C68.2585 9.75381 66.6148 9.073 64.901 9.073Z" fill="#CBAAD5"/>
<path d="M36.898 38.6239C36.6975 38.3635 36.4401 38.1524 36.1454 38.0068C35.8507 37.8612 35.5267 37.785 35.198 37.7839H26.128C25.5567 37.7839 25.0088 38.0109 24.6049 38.4148C24.2009 38.8188 23.974 39.3667 23.974 39.9379V53.9379C23.974 54.2208 24.0297 54.5009 24.138 54.7622C24.2462 55.0236 24.4049 55.261 24.6049 55.461C24.8049 55.6611 25.0424 55.8197 25.3037 55.928C25.565 56.0362 25.8451 56.0919 26.128 56.0919H31.513C32.0021 56.1074 32.4819 55.956 32.8734 55.6624C33.2649 55.3689 33.5448 54.9508 33.667 54.4769L37.267 40.4769C37.3506 40.1607 37.3611 39.8296 37.2977 39.5087C37.2343 39.1878 37.0986 38.8856 36.901 38.6249L36.898 38.6239Z" fill="#681C7F"/>
<path d="M12.929 0.455994L13.274 2.60999C13.2618 2.73169 13.2618 2.8543 13.274 2.97599C13.6286 4.1457 14.359 5.16585 15.352 5.87849C16.3451 6.59113 17.5453 6.95649 18.767 6.91799H27.598C28.7734 6.92156 29.9196 6.55235 30.8719 5.86345C31.8242 5.17455 32.5336 4.20144 32.898 3.08399C32.9102 2.9623 32.9102 2.83969 32.898 2.71799L33.239 0.563994L12.929 0.455994Z" fill="#681C7F"/>
</svg>
