<svg width="44" height="43" viewBox="0 0 44 43" fill="none" xmlns="http://www.w3.org/2000/svg">
<path d="M21.9916 42.7244C26.1898 42.7329 30.2962 41.4963 33.7915 39.1709C37.2869 36.8456 40.0142 33.5359 41.6285 29.6605C43.2429 25.7851 43.6717 21.5181 42.8609 17.3989C42.0501 13.2798 40.036 9.49359 37.0733 6.51915C34.1106 3.54472 30.3324 1.51564 26.2165 0.68851C22.1006 -0.138616 17.8319 0.273364 13.9501 1.87235C10.0683 3.47134 6.74793 6.18551 4.40876 9.67163C2.06959 13.1578 0.816719 17.2592 0.808601 21.4574C0.803807 27.0847 3.03137 32.4841 7.00258 36.4711C10.9738 40.458 16.3643 42.707 21.9916 42.7244ZM32.0916 13.0494C32.809 13.0656 33.5054 13.2942 34.0929 13.7062C34.6804 14.1183 35.1325 14.6952 35.392 15.3642C35.6516 16.0332 35.7069 16.7641 35.5511 17.4645C35.3952 18.1649 35.0351 18.8034 34.5164 19.2992C33.9977 19.795 33.3436 20.1258 32.6368 20.2499C31.9301 20.3739 31.2024 20.2856 30.5459 19.9961C29.8893 19.7066 29.3333 19.2289 28.9483 18.6234C28.5632 18.0179 28.3664 17.3118 28.3826 16.5944C28.38 16.1143 28.4753 15.6387 28.6627 15.1967C28.8502 14.7547 29.1258 14.3556 29.4728 14.0238C29.8198 13.6919 30.2308 13.4344 30.6808 13.2669C31.1307 13.0993 31.6101 13.0253 32.0896 13.0494H32.0916ZM12.6796 13.0494C13.6415 13.0721 14.5551 13.476 15.2192 14.1722C15.8834 14.8684 16.2438 15.8 16.2211 16.7619C16.1984 17.7239 15.7945 18.6374 15.0983 19.3016C14.4021 19.9657 13.4705 20.3261 12.5086 20.3034C11.5505 20.276 10.6421 19.8706 9.98192 19.1756C9.32175 18.4807 8.96342 17.5527 8.98521 16.5944C9.00701 15.6361 9.40716 14.7254 10.0983 14.0612C10.7893 13.397 11.7152 13.0332 12.6736 13.0494H12.6796Z" fill="#E4E4E4"/>
<path d="M11.1466 29.7255H32.9196" stroke="white" stroke-width="5" stroke-linecap="round"/>
</svg>
