<svg width="24" height="24" viewBox="0 0 24 24" fill="none" xmlns="http://www.w3.org/2000/svg">
<path d="M19 10.572V18.001C19 18.5314 18.7893 19.0401 18.4142 19.4152C18.0391 19.7903 17.5304 20.001 17 20.001H6C5.46957 20.001 4.96086 19.7903 4.58579 19.4152C4.21071 19.0401 4 18.5314 4 18.001V7.00098C4 6.47054 4.21071 5.96184 4.58579 5.58676C4.96086 5.21169 5.46957 5.00098 6 5.00098H13.429" stroke="#5072CC" stroke-width="2" stroke-linecap="round" stroke-linejoin="round"/>
<path fill-rule="evenodd" clip-rule="evenodd" d="M18 7.00098C18.1978 7.00098 18.3911 6.94233 18.5556 6.83245C18.72 6.72257 18.8482 6.56639 18.9239 6.38366C18.9996 6.20093 19.0194 5.99987 18.9808 5.80589C18.9422 5.61191 18.847 5.43372 18.7071 5.29387C18.5673 5.15402 18.3891 5.05878 18.1951 5.02019C18.0011 4.98161 17.8 5.00141 17.6173 5.0771C17.4346 5.15279 17.2784 5.28096 17.1685 5.44541C17.0586 5.60986 17 5.8032 17 6.00098C17 6.26619 17.1054 6.52055 17.2929 6.70808C17.4804 6.89562 17.7348 7.00098 18 7.00098Z" stroke="#5072CC" stroke-width="2" stroke-linecap="round"/>
<path d="M8 15.001L11 11.001L13 13.001L16 9.00098" stroke="#5072CC" stroke-width="2" stroke-linecap="round" stroke-linejoin="round"/>
</svg>
