<svg width="44" height="43" viewBox="0 0 44 43" fill="none" xmlns="http://www.w3.org/2000/svg">
<path d="M21.9916 42.6512C26.1898 42.6597 30.2962 41.4231 33.7915 39.0977C37.2869 36.7723 40.0142 33.4627 41.6285 29.5873C43.2429 25.7119 43.6717 21.4448 42.8609 17.3257C42.0501 13.2065 40.036 9.42034 37.0733 6.44591C34.1106 3.47147 30.3324 1.44239 26.2165 0.615267C22.1006 -0.211858 17.8319 0.200122 13.9501 1.79911C10.0683 3.3981 6.74793 6.11227 4.40876 9.59839C2.06959 13.0845 0.816719 17.186 0.808601 21.3842C0.803807 27.0115 3.03137 32.4109 7.00258 36.3978C10.9738 40.3848 16.3643 42.6337 21.9916 42.6512ZM32.0916 12.9762C32.809 12.9924 33.5054 13.221 34.0929 13.633C34.6804 14.045 35.1325 14.622 35.392 15.291C35.6516 15.9599 35.7069 16.6908 35.5511 17.3913C35.3952 18.0917 35.0351 18.7302 34.5164 19.226C33.9977 19.7218 33.3436 20.0526 32.6368 20.1766C31.9301 20.3007 31.2024 20.2124 30.5459 19.9228C29.8893 19.6333 29.3333 19.1556 28.9483 18.5501C28.5632 17.9446 28.3664 17.2386 28.3826 16.5212C28.38 16.0411 28.4753 15.5655 28.6627 15.1235C28.8502 14.6815 29.1258 14.2824 29.4728 13.9505C29.8198 13.6187 30.2308 13.3612 30.6808 13.1936C31.1307 13.0261 31.6101 12.9521 32.0896 12.9762H32.0916ZM12.6796 12.9762C13.6415 12.9989 14.5551 13.4027 15.2192 14.099C15.8834 14.7952 16.2438 15.7267 16.2211 16.6887C16.1984 17.6506 15.7945 18.5642 15.0983 19.2283C14.4021 19.8925 13.4705 20.2529 12.5086 20.2302C11.5505 20.2028 10.6421 19.7973 9.98192 19.1024C9.32175 18.4074 8.96342 17.4795 8.98521 16.5212C9.00701 15.5629 9.40716 14.6522 10.0983 13.9879C10.7893 13.3237 11.7152 12.96 12.6736 12.9762H12.6796Z" fill="#E4E4E4"/>
<path d="M22.4553 25.4654C25.0322 25.5074 27.5431 26.2869 29.6907 27.7116C31.8383 29.1363 33.5327 31.1466 34.5733 33.5044C34.7566 33.9805 34.7471 34.5094 34.547 34.9787C34.3469 35.4481 33.9718 35.821 33.5013 36.0184C32.9732 36.1802 32.4052 36.1536 31.8945 35.9431C31.3838 35.7326 30.9621 35.3513 30.7013 34.8644C29.9659 33.2511 28.7911 31.8774 27.3114 30.9007C25.8316 29.9239 24.1068 29.3835 22.3343 29.3414C20.5735 29.3178 18.8455 29.8188 17.3703 30.7804C15.8951 31.742 14.7394 33.1208 14.0503 34.7414C13.9468 34.9839 13.796 35.2034 13.6066 35.387C13.4173 35.5705 13.1932 35.7145 12.9476 35.8104C12.702 35.9063 12.4396 35.9522 12.176 35.9455C11.9124 35.9388 11.6528 35.8796 11.4123 35.7714C11.1574 35.6838 10.9247 35.5418 10.7302 35.3553C10.5357 35.1687 10.3841 34.9421 10.2859 34.6912C10.1877 34.4402 10.1453 34.1709 10.1616 33.9019C10.1779 33.6329 10.2525 33.3706 10.3803 33.1334C11.439 30.8268 13.1423 28.8756 15.2847 27.5151C17.4272 26.1546 19.9174 25.4427 22.4553 25.4654Z" fill="#F8F8F8"/>
</svg>
