<svg width="27" height="32" viewBox="0 0 27 32" fill="none" xmlns="http://www.w3.org/2000/svg">
<path fill-rule="evenodd" clip-rule="evenodd" d="M2.48 7.40998V16.644C2.48 23.538 8.587 26.853 13.493 29.517L13.624 29.587L13.757 29.517C18.662 26.853 24.77 23.539 24.77 16.644V7.40998L13.624 2.15998L2.48 7.40998ZM13.624 31.559C13.47 31.5584 13.3186 31.52 13.183 31.447L12.613 31.137C7.559 28.392 0.637001 24.635 0.637001 16.644V6.82598C0.637061 6.65099 0.686815 6.47962 0.780464 6.3318C0.874113 6.18398 1.00781 6.06579 1.16601 5.99098L13.237 0.30698C13.3593 0.248771 13.4931 0.218567 13.6285 0.218567C13.764 0.218567 13.8977 0.248771 14.02 0.30698L26.087 5.98998C26.2452 6.06479 26.3789 6.18298 26.4725 6.3308C26.5662 6.47862 26.6159 6.64999 26.616 6.82498V16.643C26.616 24.634 19.692 28.391 14.639 31.136L14.069 31.446C13.9331 31.5191 13.7813 31.5575 13.627 31.558L13.624 31.559ZM21.249 22.62H16.137L14.637 21.127V19.759H12.737V17.853H11.371L10.416 16.898C10.385 16.898 10.353 16.898 10.322 16.898C9.29108 16.8982 8.28325 16.5926 7.42599 16.02C6.56873 15.4474 5.90054 14.6334 5.50593 13.681C5.11132 12.7286 5.00802 11.6805 5.2091 10.6694C5.41017 9.65829 5.9066 8.72951 6.63557 8.00054C7.36454 7.27157 8.29331 6.77515 9.30444 6.57408C10.3156 6.373 11.3636 6.4763 12.316 6.87091C13.2684 7.26552 14.0824 7.93371 14.655 8.79097C15.2277 9.64823 15.5332 10.6561 15.533 11.687C15.533 11.718 15.533 11.75 15.533 11.779L21.255 17.503V22.62H21.249ZM16.897 20.777H19.406V18.268L13.606 12.468L13.671 11.86C13.7034 11.1886 13.5338 10.523 13.1841 9.94893C12.8344 9.37491 12.3207 8.91887 11.7093 8.6397C11.0979 8.36053 10.4168 8.27103 9.75401 8.38277C9.09121 8.49451 8.47712 8.80234 7.99102 9.26654C7.50492 9.73074 7.16911 10.33 7.02695 10.9869C6.8848 11.6439 6.94281 12.3283 7.19352 12.952C7.44422 13.5756 7.87611 14.1098 8.43342 14.4856C8.99072 14.8613 9.64786 15.0614 10.32 15.06L11.091 14.973L12.133 16.013H14.579V17.92H16.485V20.368L16.897 20.777ZM11.782 11.742C11.782 12.0155 11.7009 12.2829 11.5489 12.5103C11.397 12.7378 11.181 12.915 10.9282 13.0197C10.6755 13.1244 10.3975 13.1518 10.1292 13.0984C9.86091 13.045 9.61449 12.9133 9.42107 12.7199C9.22766 12.5265 9.09594 12.2801 9.04258 12.0118C8.98922 11.7435 9.01659 11.4654 9.12127 11.2127C9.22595 10.96 9.40322 10.744 9.63065 10.5921C9.85809 10.4401 10.1255 10.359 10.399 10.359C10.7658 10.359 11.1176 10.5047 11.3769 10.7641C11.6363 11.0234 11.782 11.3752 11.782 11.742Z" fill="#7E7E7E"/>
</svg>
