<svg xmlns="http://www.w3.org/2000/svg" viewBox="312 726 108.972 118.053">
  <g>
    <path
      d="M398.27,834.972a13.621,13.621,0,1,1,13.621-13.621,13.62,13.62,0,0,1-13.621,13.621ZM334.7,798.648a13.622,13.622,0,1,1,13.621-13.622A13.621,13.621,0,0,1,334.7,798.648Zm63.567-63.567A13.622,13.622,0,1,1,384.648,748.7a13.621,13.621,0,0,1,13.622-13.622Zm0,63.567a22.636,22.636,0,0,0-19.088,10.5l-24.314-13.894a21.318,21.318,0,0,0,1.471-16.75l25.3-14.452a23.817,23.817,0,1,0-5-8.818l-25.3,14.448a22.726,22.726,0,1,0-2.924,33.336l-.091.173,27.493,15.71a21.782,21.782,0,0,0-.25,2.452,22.7,22.7,0,1,0,22.7-22.7Z"
      fill="#2867b2" fill-rule="evenodd" />
  </g>
</svg>