<?xml version="1.0" encoding="UTF-8"?>
<svg id="Livello_2" data-name="Livello 2" xmlns="http://www.w3.org/2000/svg" xmlns:xlink="http://www.w3.org/1999/xlink" viewBox="0 0 807.558 330.694">
  <defs>
    <style>
      .cls-1 {
        fill: url(#Sfumatura_senza_nome_36);
      }

      .cls-2 {
        fill: url(#Sfumatura_senza_nome_33);
      }

      .cls-3 {
        fill: #9d038b;
      }

      .cls-4 {
        fill: url(#Sfumatura_senza_nome_36-3);
      }

      .cls-5 {
        fill: url(#Sfumatura_senza_nome_36-2);
      }

      .cls-6 {
        fill: url(#Sfumatura_senza_nome_36-4);
      }

      .cls-7 {
        fill: #fff;
      }
    </style>
    <linearGradient id="Sfumatura_senza_nome_33" data-name="Sfumatura senza nome 33" x1="670.967" y1="215.564" x2="896.484" y2="215.564" gradientUnits="userSpaceOnUse">
      <stop offset="0" stop-color="#9d038b"/>
      <stop offset=".466" stop-color="#ff5e5e"/>
      <stop offset=".507" stop-color="#da3676"/>
      <stop offset=".601" stop-color="#e63f72"/>
    </linearGradient>
    <linearGradient id="Sfumatura_senza_nome_36" data-name="Sfumatura senza nome 36" x1="790.964" y1="217.349" x2="807.558" y2="217.349" gradientUnits="userSpaceOnUse">
      <stop offset="0" stop-color="#ff5d5e"/>
      <stop offset="1" stop-color="#ff5e5e"/>
    </linearGradient>
    <linearGradient id="Sfumatura_senza_nome_36-2" data-name="Sfumatura senza nome 36" x1="388.192" y1="68.503" x2="460.078" y2="68.503" xlink:href="#Sfumatura_senza_nome_36"/>
    <linearGradient id="Sfumatura_senza_nome_36-3" data-name="Sfumatura senza nome 36" x1="400.369" y1="33.919" x2="456.333" y2="33.919" xlink:href="#Sfumatura_senza_nome_36"/>
    <linearGradient id="Sfumatura_senza_nome_36-4" data-name="Sfumatura senza nome 36" x1="411.402" y1="124.751" x2="425.639" y2="124.751" xlink:href="#Sfumatura_senza_nome_36"/>
  </defs>
  <g id="Livello_1-2" data-name="Livello 1">
    <g>
      <g>
        <polygon class="cls-7" points="99.582 232.385 99.582 170.454 117.643 170.454 117.643 262.557 99.317 262.557 58.149 201.684 58.149 262.557 40.088 262.557 40.088 170.454 57.883 170.454 99.582 232.385"/>
        <path class="cls-7" d="M503.183,169.55c35.949-3.647,60.913,24.624,52.541,59.766-10.514,44.129-76.545,46.416-90.39,3.576-9.159-28.34,6.646-60.177,37.849-63.342ZM506.371,186.49c-35.087,3.783-31.458,63.338,6.209,60.179,36.098-3.028,33.479-64.458-6.209-60.179Z"/>
        <path class="cls-7" d="M617.766,170.454c13.944,1.407,24.507,11.74,25.755,25.681,1.324,14.786-3.816,27.826-18.593,32.819l22.32,33.603h-20.982l-21.248-31.76h-10.358v31.76h-18.061v-92.103h41.168ZM594.659,214.917h16.733c.833,0,4.223-1.229,5.232-1.667,10.961-4.764,11.137-20.344.337-25.055-1.698-.74-6-1.861-7.694-1.861h-14.608v28.584Z"/>
        <polygon class="cls-7" points="293.469 170.454 293.469 186.069 292.673 186.863 252.036 186.863 252.036 208.565 284.97 208.565 284.97 224.975 252.036 224.975 252.036 246.148 296.125 246.148 296.125 262.557 233.975 262.557 233.975 170.454 293.469 170.454"/>
        <path class="cls-7" d="M337.44,169.542c13.038-1.46,25.889,2.743,35.687,11.291l-10.414,13.384c-7.248-4.874-13.935-9.629-23.25-8.366-6.304.855-10.066,7.36-6.798,13.033,3.403,5.908,25.217,11.486,32.466,16.346,8.973,6.016,12.005,15.309,9.996,25.744-5.608,29.124-50.133,28.099-65.74,8.084l10.391-12.968c8.037,7.153,19.507,14.267,30.684,9.949,6.963-2.69,8.216-11.381,2.511-16.047-6.649-5.439-20.417-7.337-28.863-13.055-21.607-14.628-11.211-44.646,13.328-47.394Z"/>
        <polygon class="cls-7" points="153.765 170.454 176.6 236.619 199.182 170.454 218.571 170.454 184.634 262.243 168.883 262.596 134.11 170.454 153.765 170.454"/>
        <polygon class="cls-7" points="456.016 186.334 429.987 186.863 429.987 262.557 411.927 262.557 411.927 197.714 429.456 186.863 386.429 186.863 386.429 169.924 455.219 169.924 456.016 170.718 456.016 186.334"/>
        <g>
          <polygon class="cls-7" points="19.726 186.863 19.726 262.557 1.134 262.557 1.134 197.714 19.726 186.863"/>
          <path class="cls-7" d="M19.726,169.924v16.409H.603c-.103-3.434.132-6.906.022-10.344-.064-1.986-1.518-4.457.244-6.065h18.858Z"/>
        </g>
        <g>
          <polygon class="cls-2" points="758.969 246.048 719.309 168.11 679.649 246.048 670.967 263.017 689.909 263.017 698.591 246.048 719.309 205.402 740.027 246.048 748.708 263.017 767.65 263.017 758.969 246.048 758.969 246.048"/>
          <rect class="cls-1" x="790.964" y="170.943" width="16.594" height="92.812"/>
        </g>
      </g>
      <g>
        <path class="cls-5" d="M403.71,51.674l-2.398,12.891c1.996,2.367,4.621,4.524,4.298,7.961l13.534,4.575c2.138-3.088,5.678-4.775,9.304-3.229,1.353.577,2.8,2.534,3.796,2.535l14.29-2.722c1.386-5.576,8.74-7.636,12.155-2.626,3.371,4.945.267,10.79-5.626,10.981-3.074.099-5.076-3.15-6.319-3.149l-14.062,2.777c-.631,3.741-3.453,4.961-6.546,6.402l-3.045,12.309c3.576,5.029,1.303,12.045-5.512,11.139-6.067-.807-7.121-8.946-2.118-11.571.693-.364,1.662-.355,2.227-.694.922-.553,2.943-10.894,3.495-12.749l-2.365-3.736-14.492-4.776c-1.587.75-2.322,2.117-4.148,2.738-10.911,3.71-16.232-10.329-7.908-15.307,1.245-.745,2.7-.94,3.815-1.822l2.323-13.157c-10.219-3.659-11.021-19.532-.857-23.742,18.818-7.793,26.563,22.085,6.161,24.974Z"/>
        <path class="cls-4" d="M427.494,59.006c-.248.301-.261,2.839-.591,3.831-1.963,5.896-10.904,6.886-13.56,1.318-3.892-8.158,4.493-14.122,11.571-9.657l11.865-6.95c-.628-3.322.158-5.318,1.228-8.323l-21.126-21.149c-3.055,1.22-4.866,2.256-8.347,1.724-9.92-1.516-10.857-15.989-2.509-18.98,9.342-3.347,15.645,4.044,13.846,13.079l21.685,21.733.921.269c16.316-5.406,19.43,20.566,2.807,19.149-3.104-.265-3.971-2.297-6.627-2.659l-11.164,6.615Z"/>
        <path class="cls-3" d="M372.511,49.789c11.87-4.466,16.43,12.57,5.938,15.813-10.174,3.145-15.231-12.317-5.938-15.813Z"/>
        <path class="cls-3" d="M383.671,16.597c2.416,1.642,3.644,4.839,3.262,7.672-1.148,8.522-13.575,8.868-15.197.371-1.281-6.706,6.207-11.936,11.935-8.043Z"/>
        <path class="cls-3" d="M391.712,111.403c9.505-3.49,13.958,11.19,4.68,13.877-8.906,2.579-13.062-10.799-4.68-13.877Z"/>
        <path class="cls-6" d="M415.362,118.278c11.56-4.788,14.906,14.915,1.968,13.638-6.965-.687-8.011-11.135-1.968-13.638Z"/>
        <path class="cls-3" d="M350.27,73.304c8.857-3.397,12.067,9.888,3.848,11.842-7.032,1.672-10.609-9.249-3.848-11.842Z"/>
        <path class="cls-3" d="M374.81,99.473c-6.777-4.903,1.467-15.426,7.689-9.421,5.751,5.55-1.827,13.662-7.689,9.421Z"/>
        <path class="cls-3" d="M347.894,37.825c7.252-2.644,10.18,8.212,3.527,10.166-6.404,1.881-9.634-7.939-3.527-10.166Z"/>
      </g>
      <g>
        <path class="cls-7" d="M452.483,300.318v30.033h-2.754v-30.033h2.754Z"/>
        <path class="cls-7" d="M462.988,330.351v-30.033h4.08c5.559,7.208,18.615,23.984,20.859,27.245h.051c-.306-4.333-.255-8.753-.255-13.644v-13.601h2.805v30.033h-3.774c-5.304-6.951-18.564-24.413-21.114-27.716h-.051c.255,3.947.204,8.323.204,13.772v13.944h-2.805Z"/>
        <path class="cls-7" d="M508.169,302.463h-11.985v-2.145h26.825v2.145h-12.036v27.888h-2.805v-27.888Z"/>
        <path class="cls-7" d="M549.272,315.592h-18.207v12.614h19.941l-.408,2.145h-22.287v-30.033h21.879v2.145h-19.125v10.984h18.207v2.145Z"/>
        <path class="cls-7" d="M558.041,300.318h2.754v27.888h19.176l-.51,2.145h-21.42v-30.033Z"/>
        <path class="cls-7" d="M585.476,300.318h2.754v27.888h19.176l-.51,2.145h-21.42v-30.033Z"/>
        <path class="cls-7" d="M615.665,300.318v30.033h-2.754v-30.033h2.754Z"/>
        <path class="cls-7" d="M653.199,330.351h-2.295c-.204-.343-.306-1.888-.357-4.805-1.275,2.059-4.08,5.148-11.526,5.148-10.251,0-15.504-6.564-15.504-15.102,0-8.967,5.609-15.703,16.065-15.703,7.701,0,12.801,3.389,13.923,8.924h-2.754c-1.53-4.248-5.049-6.779-11.271-6.779-8.925,0-13.005,5.835-13.005,13.429,0,6.865,3.927,13.086,12.648,13.086,8.925,0,11.424-4.891,11.424-11.541v-.343h-11.526v-2.145h14.178v15.832Z"/>
        <path class="cls-7" d="M683.388,315.592h-18.207v12.614h19.941l-.408,2.145h-22.287v-30.033h21.879v2.145h-19.124v10.984h18.207v2.145Z"/>
        <path class="cls-7" d="M692.157,330.351v-30.033h4.08c5.559,7.208,18.615,23.984,20.858,27.245h.051c-.306-4.333-.255-8.753-.255-13.644v-13.601h2.805v30.033h-3.774c-5.304-6.951-18.564-24.413-21.114-27.716h-.05c.255,3.947.203,8.323.203,13.772v13.944h-2.805Z"/>
        <path class="cls-7" d="M737.337,302.463h-11.984v-2.145h26.825v2.145h-12.036v27.888h-2.805v-27.888Z"/>
        <path class="cls-7" d="M773.492,300.318v30.033h-2.754v-30.033h2.754Z"/>
        <path class="cls-7" d="M786.802,316.322v14.03h-2.805v-30.033h12.801c7.037,0,10.76,3.175,10.76,7.895,0,3.818-2.702,6.307-6.681,7.036,3.672.729,6.12,2.746,6.12,7.851v1.159c0,2.102-.204,4.934.459,6.093h-2.805c-.663-1.287-.51-3.69-.51-6.264v-.772c0-4.934-1.734-6.993-8.568-6.993h-8.772ZM786.802,314.176h8.618c6.273,0,9.18-1.973,9.18-5.921,0-3.69-2.855-5.792-8.415-5.792h-9.383v11.713Z"/>
      </g>
    </g>
  </g>
</svg>