<?xml version="1.0" encoding="UTF-8"?>
<svg id="Livello_2" data-name="Livello 2" xmlns="http://www.w3.org/2000/svg" viewBox="0 0 744.662 88.196">
  <defs>
    <style>
      .cls-1 {
        fill: #fff;
      }
    </style>
  </defs>
  <g id="Livello_1-2" data-name="Livello 1">
    <g>
      <polygon class="cls-1" points="91.827 59.269 91.827 2.161 108.481 2.161 108.481 87.091 91.582 87.091 53.62 30.959 53.62 87.091 36.966 87.091 36.966 2.161 53.375 2.161 91.827 59.269"/>
      <path class="cls-1" d="M463.993,1.328c33.15-3.363,56.169,22.706,48.449,55.111-9.695,40.692-70.583,42.801-83.35,3.298-8.446-26.133,6.128-55.49,34.901-58.409ZM466.933,16.948c-32.354,3.489-29.008,58.405,5.725,55.492,33.287-2.792,30.871-59.438-5.725-55.492Z"/>
      <path class="cls-1" d="M569.652,2.161c12.858,1.298,22.598,10.826,23.749,23.681,1.221,13.635-3.518,25.659-17.145,30.263l20.582,30.986h-19.348l-19.593-29.286h-9.552v29.286h-16.654V2.161h37.962ZM548.344,43.162h15.43c.768,0,3.894-1.133,4.825-1.538,10.107-4.393,10.27-18.76.31-23.104-1.565-.683-5.533-1.716-7.094-1.716h-13.47v26.357Z"/>
      <polygon class="cls-1" points="270.613 2.161 270.613 16.56 269.878 17.292 232.407 17.292 232.407 37.305 262.776 37.305 262.776 52.436 232.407 52.436 232.407 71.96 273.062 71.96 273.062 87.091 215.753 87.091 215.753 2.161 270.613 2.161"/>
      <path class="cls-1" d="M311.159,1.32c12.022-1.347,23.873,2.53,32.908,10.412l-9.603,12.341c-6.684-4.495-12.85-8.879-21.439-7.715-5.813.788-9.282,6.787-6.268,12.018,3.138,5.448,23.253,10.592,29.938,15.073,8.274,5.547,11.07,14.117,9.217,23.739-5.172,26.856-46.228,25.91-60.62,7.454l9.582-11.958c7.411,6.596,17.988,13.155,28.295,9.174,6.421-2.48,7.576-10.495,2.316-14.797-6.131-5.015-18.826-6.766-26.615-12.039-19.924-13.489-10.338-41.169,12.29-43.703Z"/>
      <polygon class="cls-1" points="141.789 2.161 162.846 63.173 183.669 2.161 201.548 2.161 170.254 86.801 155.73 87.127 123.665 2.161 141.789 2.161"/>
      <polygon class="cls-1" points="420.5 16.804 396.498 17.292 396.498 87.091 379.844 87.091 379.844 27.298 396.008 17.292 356.333 17.292 356.333 1.673 419.765 1.673 420.5 2.405 420.5 16.804"/>
      <g>
        <polygon class="cls-1" points="18.189 17.292 18.189 87.091 1.045 87.091 1.045 27.298 18.189 17.292"/>
        <path class="cls-1" d="M18.189,1.673v15.131H.556c-.095-3.167.122-6.368.02-9.538-.059-1.831-1.399-4.11.225-5.593h17.389Z"/>
      </g>
      <g>
        <polygon class="cls-1" points="699.857 71.868 663.287 0 626.716 71.868 618.71 87.516 636.177 87.516 644.182 71.868 663.287 34.388 682.391 71.868 690.396 87.516 707.863 87.516 699.857 71.868 699.857 71.868"/>
        <rect class="cls-1" x="729.361" y="2.612" width="15.302" height="85.583"/>
      </g>
    </g>
  </g>
</svg>