<?xml version="1.0" encoding="UTF-8"?>
<svg id="Livello_2" data-name="Livello 2" xmlns="http://www.w3.org/2000/svg" xmlns:xlink="http://www.w3.org/1999/xlink" viewBox="0 0 882.078 121.697">
  <defs>
    <style>
      .cls-1 {
        fill: url(#Sfumatura_senza_nome_36);
      }

      .cls-2 {
        fill: url(#Sfumatura_senza_nome_33);
      }

      .cls-3 {
        fill: #9d038b;
      }

      .cls-4 {
        fill: url(#Sfumatura_senza_nome_36-3);
      }

      .cls-5 {
        fill: url(#Sfumatura_senza_nome_36-2);
      }

      .cls-6 {
        fill: url(#Sfumatura_senza_nome_36-4);
      }

      .cls-7 {
        fill: #fff;
      }
    </style>
    <linearGradient id="Sfumatura_senza_nome_33" data-name="Sfumatura senza nome 33" x1="756.126" y1="60.509" x2="964.078" y2="60.509" gradientUnits="userSpaceOnUse">
      <stop offset="0" stop-color="#9d038b"/>
      <stop offset=".466" stop-color="#ff5e5e"/>
      <stop offset=".507" stop-color="#da3676"/>
      <stop offset=".601" stop-color="#e63f72"/>
    </linearGradient>
    <linearGradient id="Sfumatura_senza_nome_36" data-name="Sfumatura senza nome 36" x1="866.777" y1="62.155" x2="882.078" y2="62.155" gradientUnits="userSpaceOnUse">
      <stop offset="0" stop-color="#ff5d5e"/>
      <stop offset="1" stop-color="#ff5e5e"/>
    </linearGradient>
    <linearGradient id="Sfumatura_senza_nome_36-2" data-name="Sfumatura senza nome 36" x1="40.163" y1="63.167" x2="106.45" y2="63.167" xlink:href="#Sfumatura_senza_nome_36"/>
    <linearGradient id="Sfumatura_senza_nome_36-3" data-name="Sfumatura senza nome 36" x1="51.392" y1="31.278" x2="102.997" y2="31.278" xlink:href="#Sfumatura_senza_nome_36"/>
    <linearGradient id="Sfumatura_senza_nome_36-4" data-name="Sfumatura senza nome 36" x1="61.565" y1="115.035" x2="74.693" y2="115.035" xlink:href="#Sfumatura_senza_nome_36"/>
  </defs>
  <g id="Livello_1-2" data-name="Livello 1">
    <g>
      <polygon class="cls-7" points="229.243 76.02 229.243 18.912 245.897 18.912 245.897 103.842 228.998 103.842 191.036 47.71 191.036 103.842 174.382 103.842 174.382 18.912 190.791 18.912 229.243 76.02"/>
      <path class="cls-7" d="M601.409,18.079c33.15-3.363,56.169,22.706,48.449,55.111-9.695,40.692-70.583,42.801-83.35,3.298-8.446-26.133,6.128-55.49,34.901-58.409ZM604.349,33.699c-32.354,3.489-29.008,58.405,5.725,55.492,33.287-2.792,30.871-59.438-5.725-55.492Z"/>
      <path class="cls-7" d="M707.068,18.912c12.858,1.298,22.598,10.826,23.749,23.681,1.221,13.635-3.518,25.659-17.145,30.263l20.582,30.986h-19.348l-19.593-29.286h-9.552v29.286h-16.654V18.912h37.962ZM685.76,59.912h15.43c.768,0,3.894-1.133,4.825-1.538,10.107-4.393,10.27-18.76.31-23.104-1.565-.683-5.533-1.716-7.094-1.716h-13.47v26.357Z"/>
      <polygon class="cls-7" points="408.029 18.912 408.029 33.311 407.294 34.043 369.823 34.043 369.823 54.055 400.192 54.055 400.192 69.186 369.823 69.186 369.823 88.71 410.478 88.71 410.478 103.842 353.169 103.842 353.169 18.912 408.029 18.912"/>
      <path class="cls-7" d="M448.575,18.071c12.022-1.347,23.873,2.53,32.908,10.412l-9.603,12.341c-6.684-4.495-12.85-8.879-21.439-7.715-5.813.788-9.282,6.787-6.268,12.018,3.138,5.448,23.253,10.592,29.938,15.073,8.274,5.547,11.07,14.117,9.217,23.739-5.172,26.856-46.228,25.91-60.62,7.454l9.582-11.958c7.411,6.596,17.988,13.155,28.295,9.174,6.421-2.48,7.576-10.495,2.316-14.797-6.131-5.015-18.826-6.766-26.615-12.039-19.924-13.489-10.338-41.169,12.29-43.703Z"/>
      <polygon class="cls-7" points="279.205 18.912 300.262 79.924 321.085 18.912 338.964 18.912 307.67 103.552 293.146 103.878 261.081 18.912 279.205 18.912"/>
      <polygon class="cls-7" points="557.916 33.555 533.914 34.043 533.914 103.842 517.26 103.842 517.26 44.049 533.425 34.043 493.749 34.043 493.749 18.424 557.181 18.424 557.916 19.156 557.916 33.555"/>
      <g>
        <polygon class="cls-7" points="155.605 34.043 155.605 103.842 138.462 103.842 138.462 44.049 155.605 34.043"/>
        <path class="cls-7" d="M155.605,18.424v15.131h-17.634c-.095-3.167.122-6.368.02-9.538-.059-1.831-1.399-4.11.225-5.593h17.389Z"/>
      </g>
      <g>
        <polygon class="cls-2" points="837.273 88.619 800.703 16.751 764.132 88.619 756.126 104.266 773.593 104.266 781.598 88.619 800.703 51.138 819.807 88.619 827.812 104.266 845.279 104.266 837.273 88.619 837.273 88.619"/>
        <rect class="cls-1" x="866.777" y="19.363" width="15.302" height="85.583"/>
      </g>
    </g>
    <g>
      <path class="cls-5" d="M54.472,47.65l-2.212,11.887c1.841,2.182,4.261,4.172,3.963,7.341l12.48,4.218c1.972-2.847,5.236-4.403,8.58-2.977,1.248.532,2.582,2.336,3.5,2.337l13.177-2.51c1.278-5.142,8.059-7.041,11.209-2.421,3.109,4.56.246,9.95-5.188,10.125-2.834.092-4.68-2.905-5.827-2.904l-12.967,2.561c-.582,3.449-3.184,4.575-6.036,5.903l-2.808,11.35c3.297,4.637,1.202,11.107-5.083,10.271-5.595-.744-6.567-8.249-1.953-10.67.639-.336,1.532-.327,2.053-.64.85-.51,2.714-10.045,3.222-11.756l-2.181-3.445-13.363-4.404c-1.463.692-2.141,1.952-3.825,2.525-10.061,3.421-14.968-9.524-7.292-14.115,1.148-.687,2.49-.867,3.518-1.68l2.142-12.132c-9.423-3.374-10.162-18.011-.79-21.893,17.352-7.186,24.494,20.365,5.681,23.029Z"/>
      <path class="cls-4" d="M76.404,54.411c-.229.278-.241,2.618-.545,3.533-1.81,5.436-10.055,6.349-12.504,1.216-3.589-7.523,4.143-13.022,10.67-8.905l10.941-6.409c-.579-3.063.146-4.904,1.133-7.675l-19.48-19.502c-2.817,1.125-4.487,2.08-7.696,1.59-9.147-1.398-10.011-14.743-2.313-17.502,8.614-3.087,14.427,3.729,12.768,12.06l19.996,20.041.849.248c15.045-4.985,17.916,18.964,2.589,17.657-2.863-.244-3.661-2.118-6.111-2.452l-10.295,6.1Z"/>
      <path class="cls-3" d="M25.703,45.911c10.946-4.118,15.15,11.591,5.476,14.582-9.382,2.9-14.045-11.358-5.476-14.582Z"/>
      <path class="cls-3" d="M35.993,15.304c2.228,1.514,3.36,4.462,3.008,7.075-1.058,7.859-12.518,8.177-14.014.342-1.181-6.184,5.724-11.007,11.006-7.417Z"/>
      <path class="cls-3" d="M43.409,102.726c8.765-3.218,12.871,10.319,4.315,12.797-8.212,2.379-12.044-9.958-4.315-12.797Z"/>
      <path class="cls-6" d="M65.216,109.066c10.66-4.415,13.745,13.754,1.815,12.576-6.422-.634-7.387-10.268-1.815-12.576Z"/>
      <path class="cls-3" d="M5.194,67.595c8.167-3.132,11.127,9.118,3.549,10.92-6.484,1.542-9.783-8.529-3.549-10.92Z"/>
      <path class="cls-3" d="M27.823,91.725c-6.25-4.521,1.353-14.224,7.09-8.687,5.303,5.118-1.684,12.598-7.09,8.687Z"/>
      <path class="cls-3" d="M3.003,34.879c6.687-2.438,9.387,7.572,3.252,9.374-5.905,1.734-8.884-7.32-3.252-9.374Z"/>
    </g>
  </g>
</svg>