<?xml version="1.0" encoding="UTF-8"?>
<svg id="Livello_2" data-name="Livello 2" xmlns="http://www.w3.org/2000/svg" viewBox="0 0 807.558 263.755">
  <defs>
    <style>
      .cls-1 {
        fill: #fff;
      }
    </style>
  </defs>
  <g id="Livello_1-2" data-name="Livello 1">
    <g>
      <g>
        <polygon class="cls-1" points="99.582 232.385 99.582 170.454 117.643 170.454 117.643 262.557 99.317 262.557 58.149 201.684 58.149 262.557 40.088 262.557 40.088 170.454 57.883 170.454 99.582 232.385"/>
        <path class="cls-1" d="M503.183,169.55c35.949-3.647,60.913,24.624,52.541,59.766-10.514,44.129-76.545,46.416-90.39,3.576-9.159-28.34,6.646-60.177,37.849-63.342ZM506.371,186.49c-35.087,3.783-31.458,63.338,6.209,60.179,36.098-3.028,33.479-64.458-6.209-60.179Z"/>
        <path class="cls-1" d="M617.766,170.454c13.944,1.407,24.507,11.74,25.755,25.681,1.324,14.786-3.816,27.826-18.593,32.819l22.32,33.603h-20.982l-21.248-31.76h-10.358v31.76h-18.061v-92.103h41.168ZM594.659,214.917h16.733c.833,0,4.223-1.229,5.232-1.667,10.961-4.764,11.137-20.344.337-25.055-1.698-.74-6-1.861-7.694-1.861h-14.608v28.584Z"/>
        <polygon class="cls-1" points="293.469 170.454 293.469 186.069 292.673 186.863 252.036 186.863 252.036 208.565 284.97 208.565 284.97 224.975 252.036 224.975 252.036 246.148 296.125 246.148 296.125 262.557 233.975 262.557 233.975 170.454 293.469 170.454"/>
        <path class="cls-1" d="M337.44,169.542c13.038-1.46,25.889,2.743,35.687,11.291l-10.414,13.384c-7.248-4.874-13.935-9.629-23.25-8.366-6.304.855-10.066,7.36-6.798,13.033,3.403,5.908,25.217,11.486,32.466,16.346,8.973,6.016,12.005,15.309,9.996,25.744-5.608,29.124-50.133,28.099-65.74,8.084l10.391-12.968c8.037,7.153,19.507,14.267,30.684,9.949,6.963-2.69,8.216-11.381,2.511-16.047-6.649-5.439-20.417-7.337-28.863-13.055-21.607-14.628-11.211-44.646,13.328-47.394Z"/>
        <polygon class="cls-1" points="153.765 170.454 176.6 236.619 199.182 170.454 218.571 170.454 184.634 262.243 168.883 262.596 134.11 170.454 153.765 170.454"/>
        <polygon class="cls-1" points="456.016 186.334 429.987 186.863 429.987 262.557 411.927 262.557 411.927 197.714 429.456 186.863 386.429 186.863 386.429 169.924 455.219 169.924 456.016 170.718 456.016 186.334"/>
        <g>
          <polygon class="cls-1" points="19.726 186.863 19.726 262.557 1.134 262.557 1.134 197.714 19.726 186.863"/>
          <path class="cls-1" d="M19.726,169.924v16.409H.603c-.103-3.434.132-6.906.022-10.344-.064-1.986-1.518-4.457.244-6.065h18.858Z"/>
        </g>
        <g>
          <polygon class="cls-1" points="758.969 246.048 719.309 168.11 679.649 246.048 670.967 263.017 689.909 263.017 698.591 246.048 719.309 205.402 740.027 246.048 748.708 263.017 767.65 263.017 758.969 246.048 758.969 246.048"/>
          <rect class="cls-1" x="790.964" y="170.943" width="16.594" height="92.812"/>
        </g>
      </g>
      <g>
        <path class="cls-1" d="M403.71,51.674l-2.398,12.891c1.996,2.367,4.621,4.524,4.298,7.961l13.534,4.575c2.138-3.088,5.678-4.775,9.304-3.229,1.353.577,2.8,2.534,3.796,2.535l14.29-2.722c1.386-5.576,8.74-7.636,12.155-2.626,3.371,4.945.267,10.79-5.626,10.981-3.074.099-5.076-3.15-6.319-3.149l-14.062,2.777c-.631,3.741-3.453,4.961-6.546,6.402l-3.045,12.309c3.576,5.029,1.303,12.045-5.512,11.139-6.067-.807-7.121-8.946-2.118-11.571.693-.364,1.662-.355,2.227-.694.922-.553,2.943-10.894,3.495-12.749l-2.365-3.736-14.492-4.776c-1.587.75-2.322,2.117-4.148,2.738-10.911,3.71-16.232-10.329-7.908-15.307,1.245-.745,2.7-.94,3.815-1.822l2.323-13.157c-10.219-3.659-11.021-19.532-.857-23.742,18.818-7.793,26.563,22.085,6.161,24.974Z"/>
        <path class="cls-1" d="M427.494,59.006c-.248.301-.261,2.839-.591,3.831-1.963,5.896-10.904,6.886-13.56,1.318-3.892-8.158,4.493-14.122,11.571-9.657l11.865-6.95c-.628-3.322.158-5.318,1.228-8.323l-21.126-21.149c-3.055,1.22-4.866,2.256-8.347,1.724-9.92-1.516-10.857-15.989-2.509-18.98,9.342-3.347,15.645,4.044,13.846,13.079l21.685,21.733.921.269c16.316-5.406,19.43,20.566,2.807,19.149-3.104-.265-3.971-2.297-6.627-2.659l-11.164,6.615Z"/>
        <path class="cls-1" d="M372.511,49.789c11.87-4.466,16.43,12.57,5.938,15.813-10.174,3.145-15.231-12.317-5.938-15.813Z"/>
        <path class="cls-1" d="M383.671,16.597c2.416,1.642,3.644,4.839,3.262,7.672-1.148,8.522-13.575,8.868-15.197.371-1.281-6.706,6.207-11.936,11.935-8.043Z"/>
        <path class="cls-1" d="M391.712,111.403c9.505-3.49,13.958,11.19,4.68,13.877-8.906,2.579-13.062-10.799-4.68-13.877Z"/>
        <path class="cls-1" d="M415.362,118.278c11.56-4.788,14.906,14.915,1.968,13.638-6.965-.687-8.011-11.135-1.968-13.638Z"/>
        <path class="cls-1" d="M350.27,73.304c8.857-3.397,12.067,9.888,3.848,11.842-7.032,1.672-10.609-9.249-3.848-11.842Z"/>
        <path class="cls-1" d="M374.81,99.473c-6.777-4.903,1.467-15.426,7.689-9.421,5.751,5.55-1.827,13.662-7.689,9.421Z"/>
        <path class="cls-1" d="M347.894,37.825c7.252-2.644,10.18,8.212,3.527,10.166-6.404,1.881-9.634-7.939-3.527-10.166Z"/>
      </g>
    </g>
  </g>
</svg>